G04 #@! TF.GenerationSoftware,KiCad,Pcbnew,9.0.1*
G04 #@! TF.CreationDate,2025-06-05T21:35:15+02:00*
G04 #@! TF.ProjectId,storm_distance_meter,73746f72-6d5f-4646-9973-74616e63655f,1*
G04 #@! TF.SameCoordinates,Original*
G04 #@! TF.FileFunction,Copper,L1,Top*
G04 #@! TF.FilePolarity,Positive*
%FSLAX46Y46*%
G04 Gerber Fmt 4.6, Leading zero omitted, Abs format (unit mm)*
G04 Created by KiCad (PCBNEW 9.0.1) date 2025-06-05 21:35:15*
%MOMM*%
%LPD*%
G01*
G04 APERTURE LIST*
G04 #@! TA.AperFunction,ComponentPad*
%ADD10R,1.800000X1.800000*%
G04 #@! TD*
G04 #@! TA.AperFunction,ComponentPad*
%ADD11C,1.800000*%
G04 #@! TD*
G04 #@! TA.AperFunction,ComponentPad*
%ADD12C,2.000000*%
G04 #@! TD*
G04 #@! TA.AperFunction,ComponentPad*
%ADD13R,1.600000X1.600000*%
G04 #@! TD*
G04 #@! TA.AperFunction,ComponentPad*
%ADD14C,1.600000*%
G04 #@! TD*
G04 #@! TA.AperFunction,ComponentPad*
%ADD15O,1.600000X1.600000*%
G04 #@! TD*
G04 #@! TA.AperFunction,ComponentPad*
%ADD16R,2.400000X1.600000*%
G04 #@! TD*
G04 #@! TA.AperFunction,ComponentPad*
%ADD17O,2.400000X1.600000*%
G04 #@! TD*
G04 #@! TA.AperFunction,ComponentPad*
%ADD18R,1.500000X1.500000*%
G04 #@! TD*
G04 #@! TA.AperFunction,ComponentPad*
%ADD19C,1.500000*%
G04 #@! TD*
G04 #@! TA.AperFunction,ComponentPad*
%ADD20R,2.400000X2.400000*%
G04 #@! TD*
G04 #@! TA.AperFunction,ComponentPad*
%ADD21C,2.400000*%
G04 #@! TD*
G04 #@! TA.AperFunction,ViaPad*
%ADD22C,0.600000*%
G04 #@! TD*
G04 #@! TA.AperFunction,ViaPad*
%ADD23C,6.000000*%
G04 #@! TD*
G04 #@! TA.AperFunction,Conductor*
%ADD24C,0.400000*%
G04 #@! TD*
G04 APERTURE END LIST*
D10*
X133460000Y-72000000D03*
D11*
X136000000Y-72000000D03*
D10*
X133460000Y-66000000D03*
D11*
X136000000Y-66000000D03*
D10*
X160040000Y-60000000D03*
D11*
X157500000Y-60000000D03*
D10*
X160040000Y-78000000D03*
D11*
X157500000Y-78000000D03*
D10*
X133460000Y-96000000D03*
D11*
X136000000Y-96000000D03*
D12*
X153950000Y-131750000D03*
X160450000Y-131750000D03*
X153950000Y-136250000D03*
X160450000Y-136250000D03*
D10*
X160040000Y-42000000D03*
D11*
X157500000Y-42000000D03*
D13*
X134200000Y-131500000D03*
D14*
X136200000Y-131500000D03*
X138200000Y-131500000D03*
X134200000Y-136500000D03*
X136200000Y-136500000D03*
X138200000Y-136500000D03*
D10*
X133460000Y-60000000D03*
D11*
X136000000Y-60000000D03*
D10*
X160040000Y-48000000D03*
D11*
X157500000Y-48000000D03*
D10*
X160040000Y-90000000D03*
D11*
X157500000Y-90000000D03*
D12*
X132950000Y-115250000D03*
X139450000Y-115250000D03*
X132950000Y-119750000D03*
X139450000Y-119750000D03*
D10*
X160040000Y-84000000D03*
D11*
X157500000Y-84000000D03*
D10*
X133460000Y-54000000D03*
D11*
X136000000Y-54000000D03*
D10*
X133460000Y-84000000D03*
D11*
X136000000Y-84000000D03*
D10*
X160040000Y-66000000D03*
D11*
X157500000Y-66000000D03*
D10*
X133460000Y-78000000D03*
D11*
X136000000Y-78000000D03*
D10*
X133460000Y-90000000D03*
D11*
X136000000Y-90000000D03*
D10*
X160040000Y-96000000D03*
D11*
X157500000Y-96000000D03*
D10*
X133460000Y-42000000D03*
D11*
X136000000Y-42000000D03*
D12*
X153950000Y-115250000D03*
X160450000Y-115250000D03*
X153950000Y-119750000D03*
X160450000Y-119750000D03*
D10*
X160040000Y-54000000D03*
D11*
X157500000Y-54000000D03*
D10*
X133460000Y-48000000D03*
D11*
X136000000Y-48000000D03*
D10*
X160040000Y-72000000D03*
D11*
X157500000Y-72000000D03*
D13*
X150847500Y-66405000D03*
D15*
X143227500Y-66405000D03*
D16*
X143192500Y-57150000D03*
D17*
X143192500Y-54610000D03*
X143192500Y-52070000D03*
X143192500Y-49530000D03*
X143192500Y-46990000D03*
X143192500Y-44450000D03*
X143192500Y-41910000D03*
X143192500Y-39370000D03*
X150812500Y-39370000D03*
X150812500Y-41910000D03*
X150812500Y-44450000D03*
X150812500Y-46990000D03*
X150812500Y-49530000D03*
X150812500Y-52070000D03*
X150812500Y-54610000D03*
X150812500Y-57150000D03*
D13*
X150202500Y-102292500D03*
D15*
X150202500Y-104832500D03*
X150202500Y-107372500D03*
X150202500Y-109912500D03*
X142582500Y-109912500D03*
X142582500Y-107372500D03*
X142582500Y-104832500D03*
X142582500Y-102292500D03*
D13*
X150847500Y-63865000D03*
D15*
X143227500Y-63865000D03*
D14*
X161642500Y-101012500D03*
D15*
X161642500Y-108632500D03*
D18*
X138960000Y-102260000D03*
D19*
X138960000Y-104800000D03*
X138960000Y-107340000D03*
D18*
X143862500Y-121332500D03*
D19*
X143862500Y-118792500D03*
X143862500Y-116252500D03*
D16*
X143515000Y-87965000D03*
D17*
X143515000Y-85425000D03*
X143515000Y-82885000D03*
X143515000Y-80345000D03*
X143515000Y-77805000D03*
X143515000Y-75265000D03*
X143515000Y-72725000D03*
X143515000Y-70185000D03*
X151135000Y-70185000D03*
X151135000Y-72725000D03*
X151135000Y-75265000D03*
X151135000Y-77805000D03*
X151135000Y-80345000D03*
X151135000Y-82885000D03*
X151135000Y-85425000D03*
X151135000Y-87965000D03*
D14*
X154410000Y-95200000D03*
D15*
X146790000Y-95200000D03*
D14*
X144537500Y-98790000D03*
X149537500Y-98790000D03*
X149895000Y-128317500D03*
D15*
X142275000Y-128317500D03*
D18*
X155927500Y-100695000D03*
D19*
X155927500Y-103235000D03*
X155927500Y-105775000D03*
D14*
X149577500Y-116610000D03*
X149577500Y-121610000D03*
D18*
X142840000Y-96140000D03*
D19*
X142840000Y-93600000D03*
X142840000Y-91060000D03*
D14*
X137795000Y-35242500D03*
D15*
X145415000Y-35242500D03*
D14*
X142910000Y-113395000D03*
D15*
X150530000Y-113395000D03*
D20*
X147700000Y-134000000D03*
D21*
X144200000Y-134000000D03*
D14*
X149895000Y-124825000D03*
D15*
X142275000Y-124825000D03*
D14*
X139200000Y-90790000D03*
D15*
X139200000Y-98410000D03*
D14*
X150847500Y-60690000D03*
D15*
X143227500Y-60690000D03*
D14*
X131600000Y-101190000D03*
D15*
X131600000Y-108810000D03*
D14*
X134600000Y-101190000D03*
D15*
X134600000Y-108810000D03*
D14*
X156210000Y-35242500D03*
D15*
X148590000Y-35242500D03*
D14*
X140220000Y-111800000D03*
D15*
X132600000Y-111800000D03*
D14*
X158150000Y-109267500D03*
X153150000Y-109267500D03*
X146790000Y-91800000D03*
D15*
X154410000Y-91800000D03*
D22*
X147000000Y-104800000D03*
X146200000Y-101400000D03*
D23*
X132200000Y-126000000D03*
X161200000Y-34500000D03*
X161200000Y-126000000D03*
X132200000Y-34500000D03*
D22*
X154622500Y-84772500D03*
X151765000Y-97155000D03*
X152717500Y-99060000D03*
X155200000Y-110600000D03*
X149860000Y-91122500D03*
X153371225Y-66693725D03*
X151700000Y-118500000D03*
X161607500Y-57150000D03*
X146200000Y-100000000D03*
X153700000Y-125000000D03*
X152200000Y-127500000D03*
X147637500Y-81915000D03*
X155575000Y-81280000D03*
X146050000Y-83502500D03*
X155575000Y-70802500D03*
X156845000Y-62230000D03*
X147002500Y-62230000D03*
X152400000Y-64770000D03*
X156845000Y-63817500D03*
X140017500Y-49530000D03*
X137795000Y-57150000D03*
X147955000Y-47307500D03*
X147955000Y-50482500D03*
X159700000Y-111500000D03*
X153700000Y-112500000D03*
X148200000Y-115000000D03*
X146200000Y-115000000D03*
X145200000Y-102500000D03*
X145700000Y-107000000D03*
X153670000Y-77217500D03*
X152717500Y-65722500D03*
X146367500Y-89217500D03*
D24*
X144537500Y-99737500D02*
X146200000Y-101400000D01*
X144537500Y-98790000D02*
X144537500Y-99737500D01*
X146800000Y-96527500D02*
X146790000Y-96517500D01*
X146790000Y-96517500D02*
X146790000Y-95200000D01*
X146253870Y-104832500D02*
X150202500Y-104832500D01*
X144537500Y-98790000D02*
X146800000Y-96527500D01*
X143713870Y-107372500D02*
X146253870Y-104832500D01*
X142582500Y-107372500D02*
X143713870Y-107372500D01*
X142582500Y-109912500D02*
X146112500Y-109912500D01*
X155917500Y-111500000D02*
X158150000Y-109267500D01*
X147700000Y-111500000D02*
X155917500Y-111500000D01*
X146112500Y-109912500D02*
X147700000Y-111500000D01*
X151765000Y-93027500D02*
X151765000Y-97155000D01*
X151135000Y-85425000D02*
X153970000Y-85425000D01*
X155200000Y-108500000D02*
X153700000Y-107000000D01*
X160450000Y-131750000D02*
X153950000Y-131750000D01*
X153700000Y-100042500D02*
X152717500Y-99060000D01*
X153700000Y-107000000D02*
X153700000Y-100042500D01*
X152717500Y-56515000D02*
X152717500Y-61277500D01*
X153700000Y-62577500D02*
X153700000Y-66327500D01*
X153700000Y-66327500D02*
X153352500Y-66675000D01*
X153352500Y-66675000D02*
X153371225Y-66693725D01*
X149577500Y-121610000D02*
X151700000Y-119487500D01*
X153035000Y-61912500D02*
X153700000Y-62577500D01*
X144882500Y-128317500D02*
X148375000Y-124825000D01*
X153035000Y-61595000D02*
X153035000Y-61912500D01*
X152025000Y-124825000D02*
X149895000Y-124825000D01*
X155200000Y-110600000D02*
X155200000Y-108500000D01*
X151700000Y-119487500D02*
X151700000Y-118500000D01*
X152717500Y-61277500D02*
X153035000Y-61595000D01*
X149895000Y-124825000D02*
X149895000Y-121927500D01*
X149860000Y-91122500D02*
X151765000Y-93027500D01*
X153970000Y-85425000D02*
X154622500Y-84772500D01*
X148375000Y-124825000D02*
X149895000Y-124825000D01*
X153950000Y-131750000D02*
X153950000Y-126750000D01*
X142275000Y-128317500D02*
X144882500Y-128317500D01*
X153950000Y-126750000D02*
X152025000Y-124825000D01*
X149895000Y-121927500D02*
X149577500Y-121610000D01*
X150812500Y-54610000D02*
X152717500Y-56515000D01*
X155927500Y-100695000D02*
X161325000Y-100695000D01*
X134200000Y-133000000D02*
X136200000Y-135000000D01*
X134200000Y-131500000D02*
X134200000Y-133000000D01*
X153950000Y-119750000D02*
X160450000Y-119750000D01*
X153950000Y-136250000D02*
X160450000Y-136250000D01*
X146790000Y-91800000D02*
X147997500Y-91800000D01*
X135600000Y-130100000D02*
X135600000Y-123900000D01*
X131800000Y-122000000D02*
X130600000Y-120800000D01*
X161607500Y-57150000D02*
X161642500Y-57185000D01*
X161642500Y-57185000D02*
X161642500Y-101012500D01*
X161325000Y-100695000D02*
X161642500Y-101012500D01*
X152200000Y-136250000D02*
X152200000Y-127500000D01*
X133700000Y-122000000D02*
X131800000Y-122000000D01*
X147990000Y-98210000D02*
X146200000Y-100000000D01*
X147990000Y-96802500D02*
X148590000Y-96202500D01*
X150810000Y-116610000D02*
X153950000Y-119750000D01*
X134200000Y-131500000D02*
X135600000Y-130100000D01*
X162842500Y-102212500D02*
X161642500Y-101012500D01*
X152200000Y-136250000D02*
X142450000Y-136250000D01*
X153950000Y-136250000D02*
X152200000Y-136250000D01*
X160450000Y-119750000D02*
X162842500Y-117357500D01*
X147997500Y-91800000D02*
X148590000Y-92392500D01*
X162842500Y-117357500D02*
X162842500Y-102212500D01*
X130600000Y-120800000D02*
X130600000Y-109810000D01*
X130600000Y-109810000D02*
X131600000Y-108810000D01*
X135600000Y-123900000D02*
X133700000Y-122000000D01*
X142450000Y-136250000D02*
X141200000Y-135000000D01*
X136200000Y-135000000D02*
X141200000Y-135000000D01*
X147990000Y-98210000D02*
X147990000Y-96802500D01*
X148590000Y-92392500D02*
X148590000Y-96202500D01*
X153700000Y-120000000D02*
X153700000Y-124500000D01*
X149577500Y-116610000D02*
X150810000Y-116610000D01*
X153950000Y-119750000D02*
X153700000Y-120000000D01*
X153700000Y-124500000D02*
X153700000Y-125000000D01*
X160040000Y-78000000D02*
X160040000Y-72000000D01*
X160040000Y-48000000D02*
X160040000Y-42000000D01*
X160040000Y-60000000D02*
X160040000Y-54000000D01*
X160040000Y-66000000D02*
X160040000Y-60000000D01*
X160040000Y-72000000D02*
X160040000Y-66000000D01*
X160040000Y-84000000D02*
X160040000Y-78000000D01*
X160040000Y-39072500D02*
X156210000Y-35242500D01*
X160040000Y-96000000D02*
X160040000Y-90000000D01*
X160040000Y-42000000D02*
X160040000Y-39072500D01*
X160040000Y-90000000D02*
X160040000Y-84000000D01*
X160040000Y-54000000D02*
X160040000Y-48000000D01*
X151135000Y-80345000D02*
X146702500Y-80345000D01*
X145732500Y-58185000D02*
X145732500Y-50800000D01*
X143227500Y-60690000D02*
X145732500Y-58185000D01*
X141605000Y-79057500D02*
X140335000Y-77787500D01*
X142192500Y-66405000D02*
X143227500Y-66405000D01*
X140335000Y-77787500D02*
X140335000Y-69869194D01*
X147002500Y-49530000D02*
X145732500Y-50800000D01*
X145415000Y-79057500D02*
X141605000Y-79057500D01*
X143227500Y-63865000D02*
X143227500Y-60690000D01*
X141287500Y-68916694D02*
X141287500Y-67310000D01*
X140335000Y-69869194D02*
X141287500Y-68916694D01*
X143227500Y-63865000D02*
X143227500Y-66405000D01*
X141287500Y-67310000D02*
X142192500Y-66405000D01*
X150812500Y-49530000D02*
X147002500Y-49530000D01*
X146702500Y-80345000D02*
X145415000Y-79057500D01*
X141922500Y-86677500D02*
X141287500Y-86042500D01*
X141287500Y-86042500D02*
X141287500Y-83820000D01*
X148907500Y-89852500D02*
X145732500Y-86677500D01*
X157500000Y-96000000D02*
X157500000Y-92412500D01*
X145732500Y-86677500D02*
X141922500Y-86677500D01*
X142222500Y-82885000D02*
X141287500Y-83820000D01*
X143515000Y-82885000D02*
X142222500Y-82885000D01*
X154940000Y-89852500D02*
X148907500Y-89852500D01*
X157500000Y-92412500D02*
X154940000Y-89852500D01*
X143515000Y-80345000D02*
X144480000Y-80345000D01*
X153035000Y-84137500D02*
X153172500Y-84000000D01*
X153172500Y-84000000D02*
X157500000Y-84000000D01*
X144480000Y-80345000D02*
X148272500Y-84137500D01*
X148272500Y-84137500D02*
X153035000Y-84137500D01*
X149225000Y-86677500D02*
X156527500Y-86677500D01*
X157500000Y-87650000D02*
X157500000Y-90000000D01*
X143515000Y-85425000D02*
X147972500Y-85425000D01*
X156527500Y-86677500D02*
X157500000Y-87650000D01*
X147972500Y-85425000D02*
X149225000Y-86677500D01*
X143515000Y-72725000D02*
X145432500Y-72725000D01*
X149225000Y-76517500D02*
X156017500Y-76517500D01*
X145432500Y-72725000D02*
X149225000Y-76517500D01*
X156017500Y-76517500D02*
X157500000Y-78000000D01*
X154377500Y-72000000D02*
X157500000Y-72000000D01*
X151135000Y-72725000D02*
X153652500Y-72725000D01*
X153652500Y-72725000D02*
X154377500Y-72000000D01*
X155310000Y-81545000D02*
X155575000Y-81280000D01*
X144550000Y-81685000D02*
X146050000Y-83185000D01*
X148007500Y-81545000D02*
X155310000Y-81545000D01*
X155575000Y-67925000D02*
X155575000Y-70802500D01*
X140335000Y-83185000D02*
X141835000Y-81685000D01*
X157500000Y-66000000D02*
X155575000Y-67925000D01*
X141835000Y-81685000D02*
X144550000Y-81685000D01*
X141940000Y-87965000D02*
X140335000Y-86360000D01*
X140335000Y-86360000D02*
X140335000Y-83185000D01*
X143515000Y-87965000D02*
X141940000Y-87965000D01*
X147637500Y-81915000D02*
X148007500Y-81545000D01*
X146050000Y-83185000D02*
X146050000Y-83502500D01*
X143515000Y-77805000D02*
X142575000Y-77805000D01*
X146367500Y-62865000D02*
X147002500Y-62230000D01*
X140970000Y-70082722D02*
X142790222Y-68262500D01*
X142790222Y-68262500D02*
X145415000Y-68262500D01*
X157500000Y-61575000D02*
X157500000Y-60000000D01*
X145415000Y-68262500D02*
X146367500Y-67310000D01*
X146367500Y-67310000D02*
X146367500Y-62865000D01*
X140970000Y-76200000D02*
X140970000Y-70082722D01*
X142575000Y-77805000D02*
X140970000Y-76200000D01*
X156845000Y-62230000D02*
X157500000Y-61575000D01*
X155892500Y-55607500D02*
X157500000Y-54000000D01*
X152400000Y-64770000D02*
X152082500Y-65087500D01*
X147320000Y-70167500D02*
X146102500Y-71385000D01*
X142610000Y-71385000D02*
X141605000Y-72390000D01*
X155892500Y-62865000D02*
X155892500Y-55607500D01*
X156845000Y-63817500D02*
X155892500Y-62865000D01*
X146102500Y-71385000D02*
X142610000Y-71385000D01*
X141605000Y-73660000D02*
X143210000Y-75265000D01*
X143210000Y-75265000D02*
X143515000Y-75265000D01*
X147320000Y-66675000D02*
X147320000Y-70167500D01*
X148907500Y-65087500D02*
X147320000Y-66675000D01*
X152082500Y-65087500D02*
X148907500Y-65087500D01*
X141605000Y-72390000D02*
X141605000Y-73660000D01*
X155257500Y-50242500D02*
X155257500Y-66992500D01*
X157500000Y-48000000D02*
X155257500Y-50242500D01*
X152065000Y-70185000D02*
X151135000Y-70185000D01*
X155257500Y-66992500D02*
X152065000Y-70185000D01*
X148590000Y-73977500D02*
X148590000Y-68580000D01*
X157500000Y-42000000D02*
X154305000Y-45195000D01*
X151135000Y-75265000D02*
X149877500Y-75265000D01*
X150765000Y-66405000D02*
X148590000Y-68580000D01*
X149877500Y-75265000D02*
X148590000Y-73977500D01*
X153773972Y-67627500D02*
X152070000Y-67627500D01*
X154305000Y-67096472D02*
X153773972Y-67627500D01*
X150847500Y-66405000D02*
X150765000Y-66405000D01*
X154305000Y-45195000D02*
X154305000Y-67096472D01*
X152070000Y-67627500D02*
X150847500Y-66405000D01*
X141287500Y-64770000D02*
X141287500Y-56255000D01*
X140617500Y-65440000D02*
X141287500Y-64770000D01*
X137795000Y-94205000D02*
X137795000Y-86677500D01*
X136000000Y-96000000D02*
X137795000Y-94205000D01*
X139700000Y-84772500D02*
X139700000Y-69428528D01*
X144019556Y-55880000D02*
X145097500Y-54802056D01*
X145097500Y-54802056D02*
X145097500Y-52705000D01*
X141662500Y-55880000D02*
X144019556Y-55880000D01*
X144462500Y-52070000D02*
X143192500Y-52070000D01*
X139700000Y-69428528D02*
X140617500Y-68511028D01*
X145097500Y-52705000D02*
X144462500Y-52070000D01*
X140617500Y-68511028D02*
X140617500Y-65440000D01*
X141287500Y-56255000D02*
X141662500Y-55880000D01*
X137795000Y-86677500D02*
X139700000Y-84772500D01*
X139382500Y-64452500D02*
X139382500Y-67627500D01*
X140017500Y-63817500D02*
X139382500Y-64452500D01*
X138395000Y-68615000D02*
X138395000Y-81605000D01*
X139382500Y-67627500D02*
X138395000Y-68615000D01*
X143192500Y-49530000D02*
X141287500Y-49530000D01*
X138395000Y-81605000D02*
X136000000Y-84000000D01*
X141287500Y-49530000D02*
X140017500Y-50800000D01*
X140017500Y-50800000D02*
X140017500Y-63817500D01*
X133460000Y-39577500D02*
X137795000Y-35242500D01*
X133460000Y-78000000D02*
X133460000Y-72000000D01*
X133460000Y-54000000D02*
X133460000Y-48000000D01*
X133460000Y-42000000D02*
X133460000Y-39577500D01*
X133460000Y-72000000D02*
X133460000Y-66000000D01*
X133460000Y-84000000D02*
X133460000Y-78000000D01*
X133460000Y-60000000D02*
X133460000Y-54000000D01*
X133460000Y-96000000D02*
X133460000Y-90000000D01*
X133460000Y-90000000D02*
X133460000Y-84000000D01*
X133460000Y-66000000D02*
X133460000Y-60000000D01*
X133460000Y-48000000D02*
X133460000Y-42000000D01*
X138747500Y-67310000D02*
X138747500Y-63817500D01*
X137795000Y-68262500D02*
X138747500Y-67310000D01*
X139382500Y-50165000D02*
X140017500Y-49530000D01*
X138747500Y-63817500D02*
X139382500Y-63182500D01*
X139382500Y-63182500D02*
X139382500Y-50165000D01*
X136000000Y-78000000D02*
X137795000Y-76205000D01*
X137795000Y-76205000D02*
X137795000Y-68262500D01*
X150812500Y-41910000D02*
X147955000Y-41910000D01*
X136000000Y-68152500D02*
X136000000Y-72000000D01*
X137795000Y-63182500D02*
X137795000Y-66357500D01*
X138747500Y-49212500D02*
X138747500Y-62230000D01*
X139700000Y-48260000D02*
X138747500Y-49212500D01*
X138747500Y-62230000D02*
X137795000Y-63182500D01*
X145732500Y-47307500D02*
X144780000Y-48260000D01*
X147955000Y-41910000D02*
X145732500Y-44132500D01*
X137795000Y-66357500D02*
X136000000Y-68152500D01*
X144780000Y-48260000D02*
X139700000Y-48260000D01*
X145732500Y-44132500D02*
X145732500Y-47307500D01*
X137795000Y-61595000D02*
X137795000Y-57150000D01*
X136000000Y-63390000D02*
X137795000Y-61595000D01*
X136000000Y-66000000D02*
X136000000Y-63390000D01*
X138077500Y-47977500D02*
X139065000Y-46990000D01*
X138077500Y-50200000D02*
X138077500Y-47977500D01*
X139065000Y-46990000D02*
X143192500Y-46990000D01*
X136000000Y-56405000D02*
X137477500Y-54927500D01*
X137477500Y-54927500D02*
X137477500Y-50800000D01*
X137477500Y-50800000D02*
X138077500Y-50200000D01*
X136000000Y-60000000D02*
X136000000Y-56405000D01*
X137477500Y-49212500D02*
X137477500Y-45085000D01*
X143192500Y-44450000D02*
X138112500Y-44450000D01*
X138112500Y-44450000D02*
X137477500Y-45085000D01*
X136000000Y-50690000D02*
X137477500Y-49212500D01*
X136000000Y-54000000D02*
X136000000Y-50690000D01*
X136000000Y-48000000D02*
X136000000Y-44975000D01*
X137795000Y-43180000D02*
X145097500Y-43180000D01*
X148907500Y-39370000D02*
X150812500Y-39370000D01*
X145097500Y-43180000D02*
X148907500Y-39370000D01*
X136000000Y-44975000D02*
X137795000Y-43180000D01*
X150812500Y-44450000D02*
X147955000Y-47307500D01*
X152400000Y-44450000D02*
X153035000Y-43815000D01*
X153035000Y-38417500D02*
X153035000Y-43815000D01*
X147955000Y-62865000D02*
X147955000Y-50482500D01*
X139927500Y-42000000D02*
X141287500Y-40640000D01*
X148907500Y-37782500D02*
X152400000Y-37782500D01*
X136000000Y-42000000D02*
X139927500Y-42000000D01*
X150812500Y-44450000D02*
X152400000Y-44450000D01*
X146050000Y-40640000D02*
X148907500Y-37782500D01*
X152400000Y-37782500D02*
X153035000Y-38417500D01*
X141287500Y-40640000D02*
X146050000Y-40640000D01*
X148955000Y-63865000D02*
X147955000Y-62865000D01*
X150847500Y-63865000D02*
X148955000Y-63865000D01*
X140652500Y-64135000D02*
X140017500Y-64770000D01*
X140652500Y-55562500D02*
X140652500Y-64135000D01*
X139065000Y-69215000D02*
X139065000Y-84137500D01*
X140017500Y-64770000D02*
X140017500Y-68262500D01*
X139065000Y-84137500D02*
X136000000Y-87202500D01*
X143192500Y-54610000D02*
X141605000Y-54610000D01*
X141605000Y-54610000D02*
X140652500Y-55562500D01*
X136000000Y-87202500D02*
X136000000Y-90000000D01*
X140017500Y-68262500D02*
X139065000Y-69215000D01*
X144200000Y-134000000D02*
X137200000Y-134000000D01*
X137200000Y-134000000D02*
X136200000Y-133000000D01*
X136200000Y-133000000D02*
X136200000Y-131500000D01*
X143862500Y-121332500D02*
X145367500Y-121332500D01*
X147200000Y-113395000D02*
X145595000Y-113395000D01*
X144200000Y-112000000D02*
X140420000Y-112000000D01*
X139450000Y-119750000D02*
X141032500Y-121332500D01*
X141032500Y-121332500D02*
X143862500Y-121332500D01*
X147200000Y-119500000D02*
X147200000Y-113395000D01*
X145595000Y-113395000D02*
X144200000Y-112000000D01*
X145367500Y-121332500D02*
X147200000Y-119500000D01*
X140200000Y-111780000D02*
X140200000Y-106500000D01*
X140142500Y-106500000D02*
X138465000Y-104822500D01*
X150530000Y-113395000D02*
X147200000Y-113395000D01*
X140420000Y-112000000D02*
X140200000Y-111780000D01*
X140200000Y-106500000D02*
X140142500Y-106500000D01*
X137200000Y-119000000D02*
X138700000Y-117500000D01*
X138700000Y-117500000D02*
X140200000Y-117500000D01*
X137200000Y-121000000D02*
X137200000Y-119000000D01*
X140200000Y-117500000D02*
X141492500Y-118792500D01*
X141492500Y-118792500D02*
X143862500Y-118792500D01*
X141025000Y-124825000D02*
X137200000Y-121000000D01*
X142275000Y-124825000D02*
X141025000Y-124825000D01*
X161700000Y-105500000D02*
X161700000Y-106500000D01*
X158700000Y-112500000D02*
X159700000Y-111500000D01*
X153700000Y-112500000D02*
X158700000Y-112500000D01*
X159435000Y-103235000D02*
X161700000Y-105500000D01*
X155927500Y-103235000D02*
X159435000Y-103235000D01*
X161642500Y-106557500D02*
X161642500Y-108632500D01*
X161700000Y-106500000D02*
X161642500Y-106557500D01*
X148200000Y-115000000D02*
X149200000Y-115000000D01*
X142910000Y-113395000D02*
X144595000Y-113395000D01*
X160450000Y-115250000D02*
X160450000Y-110750000D01*
X153950000Y-115250000D02*
X160450000Y-115250000D01*
X144595000Y-113395000D02*
X146200000Y-115000000D01*
X159700000Y-106500000D02*
X159700000Y-107500000D01*
X160200000Y-108000000D02*
X160200000Y-110500000D01*
X149200000Y-115000000D02*
X149450000Y-115250000D01*
X159700000Y-107500000D02*
X160200000Y-108000000D01*
X155927500Y-105775000D02*
X158975000Y-105775000D01*
X149450000Y-115250000D02*
X153950000Y-115250000D01*
X160450000Y-110750000D02*
X160200000Y-110500000D01*
X158975000Y-105775000D02*
X159700000Y-106500000D01*
X137372500Y-101190000D02*
X138465000Y-102282500D01*
X134600000Y-101190000D02*
X137372500Y-101190000D01*
X154410000Y-95200000D02*
X154410000Y-91800000D01*
X144367500Y-104832500D02*
X147200000Y-102000000D01*
X147200000Y-102000000D02*
X148200000Y-102000000D01*
X142582500Y-104832500D02*
X144367500Y-104832500D01*
X148200000Y-102000000D02*
X154410000Y-95790000D01*
X141110000Y-98410000D02*
X145200000Y-102500000D01*
X139200000Y-98410000D02*
X141110000Y-98410000D01*
X150202500Y-107372500D02*
X146072500Y-107372500D01*
X146072500Y-107372500D02*
X145700000Y-107000000D01*
X153670000Y-77152500D02*
X153670000Y-77217500D01*
X149542500Y-62230000D02*
X151765000Y-62230000D01*
X153100000Y-65340000D02*
X152717500Y-65722500D01*
X150812500Y-52070000D02*
X149212500Y-53670000D01*
X153017500Y-77805000D02*
X153670000Y-77152500D01*
X151765000Y-62230000D02*
X153100000Y-63565000D01*
X149212500Y-53670000D02*
X149212500Y-61900000D01*
X149212500Y-61900000D02*
X149542500Y-62230000D01*
X151135000Y-77805000D02*
X153017500Y-77805000D01*
X153100000Y-63565000D02*
X153100000Y-65340000D01*
X142010000Y-93600000D02*
X142840000Y-93600000D01*
X139200000Y-90790000D02*
X142010000Y-93600000D01*
X142840000Y-96140000D02*
X143572500Y-96140000D01*
X144780000Y-90805000D02*
X146367500Y-89217500D01*
X144780000Y-94932500D02*
X144780000Y-90805000D01*
X132731370Y-101190000D02*
X137781370Y-96140000D01*
X137781370Y-96140000D02*
X142840000Y-96140000D01*
X143572500Y-96140000D02*
X144780000Y-94932500D01*
X131600000Y-101190000D02*
X132731370Y-101190000D01*
M02*
