M48
; DRILL file {KiCad 9.0.1} date 2025-06-05T21:35:17+0200
; FORMAT={-:-/ absolute / metric / decimal}
; #@! TF.CreationDate,2025-06-05T21:35:17+02:00
; #@! TF.GenerationSoftware,Kicad,Pcbnew,9.0.1
; #@! TF.FileFunction,Plated,1,2,PTH
FMAT,2
METRIC
; #@! TA.AperFunction,Plated,PTH,ViaDrill
T1C0.300
; #@! TA.AperFunction,Plated,PTH,ComponentDrill
T2C0.800
; #@! TA.AperFunction,Plated,PTH,ComponentDrill
T3C0.900
; #@! TA.AperFunction,Plated,PTH,ComponentDrill
T4C1.000
; #@! TA.AperFunction,Plated,PTH,ComponentDrill
T5C1.100
; #@! TA.AperFunction,Plated,PTH,ComponentDrill
T6C1.200
; #@! TA.AperFunction,Plated,PTH,ViaDrill
T7C3.000
%
G90
G05
T1
X137.795Y-57.15
X140.017Y-49.53
X145.2Y-102.5
X145.7Y-107.0
X146.05Y-83.502
X146.2Y-100.0
X146.2Y-101.4
X146.2Y-115.0
X146.368Y-89.218
X147.0Y-104.8
X147.002Y-62.23
X147.637Y-81.915
X147.955Y-47.307
X147.955Y-50.482
X148.2Y-115.0
X149.86Y-91.123
X151.7Y-118.5
X151.765Y-97.155
X152.2Y-127.5
X152.4Y-64.77
X152.718Y-65.722
X152.718Y-99.06
X153.371Y-66.694
X153.67Y-77.218
X153.7Y-112.5
X153.7Y-125.0
X154.623Y-84.772
X155.2Y-110.6
X155.575Y-70.802
X155.575Y-81.28
X156.845Y-62.23
X156.845Y-63.817
X159.7Y-111.5
X161.607Y-57.15
T2
X131.6Y-101.19
X131.6Y-108.81
X132.6Y-111.8
X134.6Y-101.19
X134.6Y-108.81
X137.795Y-35.242
X138.96Y-102.26
X138.96Y-104.8
X138.96Y-107.34
X139.2Y-90.79
X139.2Y-98.41
X140.22Y-111.8
X142.275Y-124.825
X142.275Y-128.317
X142.582Y-102.292
X142.582Y-104.832
X142.582Y-107.372
X142.582Y-109.912
X142.84Y-91.06
X142.84Y-93.6
X142.84Y-96.14
X142.91Y-113.395
X143.192Y-39.37
X143.192Y-41.91
X143.192Y-44.45
X143.192Y-46.99
X143.192Y-49.53
X143.192Y-52.07
X143.192Y-54.61
X143.192Y-57.15
X143.227Y-60.69
X143.227Y-63.865
X143.227Y-66.405
X143.515Y-70.185
X143.515Y-72.725
X143.515Y-75.265
X143.515Y-77.805
X143.515Y-80.345
X143.515Y-82.885
X143.515Y-85.425
X143.515Y-87.965
X143.862Y-116.252
X143.862Y-118.792
X143.862Y-121.332
X144.537Y-98.79
X145.415Y-35.242
X146.79Y-91.8
X146.79Y-95.2
X148.59Y-35.242
X149.537Y-98.79
X149.577Y-116.61
X149.577Y-121.61
X149.895Y-124.825
X149.895Y-128.317
X150.202Y-102.292
X150.202Y-104.832
X150.202Y-107.372
X150.202Y-109.912
X150.53Y-113.395
X150.812Y-39.37
X150.812Y-41.91
X150.812Y-44.45
X150.812Y-46.99
X150.812Y-49.53
X150.812Y-52.07
X150.812Y-54.61
X150.812Y-57.15
X150.847Y-60.69
X150.847Y-63.865
X150.847Y-66.405
X151.135Y-70.185
X151.135Y-72.725
X151.135Y-75.265
X151.135Y-77.805
X151.135Y-80.345
X151.135Y-82.885
X151.135Y-85.425
X151.135Y-87.965
X153.15Y-109.267
X154.41Y-91.8
X154.41Y-95.2
X155.927Y-100.695
X155.927Y-103.235
X155.927Y-105.775
X156.21Y-35.242
X158.15Y-109.267
X161.642Y-101.012
X161.642Y-108.632
T3
X133.46Y-42.0
X133.46Y-48.0
X133.46Y-54.0
X133.46Y-60.0
X133.46Y-66.0
X133.46Y-72.0
X133.46Y-78.0
X133.46Y-84.0
X133.46Y-90.0
X133.46Y-96.0
X136.0Y-42.0
X136.0Y-48.0
X136.0Y-54.0
X136.0Y-60.0
X136.0Y-66.0
X136.0Y-72.0
X136.0Y-78.0
X136.0Y-84.0
X136.0Y-90.0
X136.0Y-96.0
X157.5Y-42.0
X157.5Y-48.0
X157.5Y-54.0
X157.5Y-60.0
X157.5Y-66.0
X157.5Y-72.0
X157.5Y-78.0
X157.5Y-84.0
X157.5Y-90.0
X157.5Y-96.0
X160.04Y-42.0
X160.04Y-48.0
X160.04Y-54.0
X160.04Y-60.0
X160.04Y-66.0
X160.04Y-72.0
X160.04Y-78.0
X160.04Y-84.0
X160.04Y-90.0
X160.04Y-96.0
T4
X134.2Y-131.5
X134.2Y-136.5
X136.2Y-131.5
X136.2Y-136.5
X138.2Y-131.5
X138.2Y-136.5
T5
X132.95Y-115.25
X132.95Y-119.75
X139.45Y-115.25
X139.45Y-119.75
X153.95Y-115.25
X153.95Y-119.75
X153.95Y-131.75
X153.95Y-136.25
X160.45Y-115.25
X160.45Y-119.75
X160.45Y-131.75
X160.45Y-136.25
T6
X144.2Y-134.0
X147.7Y-134.0
T7
X132.2Y-34.5
X132.2Y-126.0
X161.2Y-34.5
X161.2Y-126.0
M30
