G04 #@! TF.GenerationSoftware,KiCad,Pcbnew,8.0.6*
G04 #@! TF.CreationDate,2025-01-21T22:00:03+01:00*
G04 #@! TF.ProjectId,storm_distance_meter,73746f72-6d5f-4646-9973-74616e63655f,1*
G04 #@! TF.SameCoordinates,Original*
G04 #@! TF.FileFunction,Legend,Top*
G04 #@! TF.FilePolarity,Positive*
%FSLAX46Y46*%
G04 Gerber Fmt 4.6, Leading zero omitted, Abs format (unit mm)*
G04 Created by KiCad (PCBNEW 8.0.6) date 2025-01-21 22:00:03*
%MOMM*%
%LPD*%
G01*
G04 APERTURE LIST*
%ADD10C,0.300000*%
%ADD11C,0.200000*%
%ADD12C,0.150000*%
%ADD13C,0.100000*%
%ADD14C,0.120000*%
%ADD15C,3.050000*%
%ADD16C,2.000000*%
%ADD17R,1.800000X1.800000*%
%ADD18C,1.800000*%
%ADD19R,1.600000X1.600000*%
%ADD20C,1.600000*%
%ADD21O,1.600000X1.600000*%
%ADD22R,1.500000X1.500000*%
%ADD23C,1.500000*%
%ADD24R,2.400000X1.600000*%
%ADD25O,2.400000X1.600000*%
%ADD26R,2.400000X2.400000*%
%ADD27C,2.400000*%
G04 APERTURE END LIST*
D10*
X136893796Y-32375042D02*
X137122368Y-33175042D01*
X137122368Y-33175042D02*
X137350939Y-32603614D01*
X137350939Y-32603614D02*
X137579510Y-33175042D01*
X137579510Y-33175042D02*
X137808082Y-32375042D01*
X138150939Y-32375042D02*
X138379511Y-33175042D01*
X138379511Y-33175042D02*
X138608082Y-32603614D01*
X138608082Y-32603614D02*
X138836653Y-33175042D01*
X138836653Y-33175042D02*
X139065225Y-32375042D01*
X139408082Y-32375042D02*
X139636654Y-33175042D01*
X139636654Y-33175042D02*
X139865225Y-32603614D01*
X139865225Y-32603614D02*
X140093796Y-33175042D01*
X140093796Y-33175042D02*
X140322368Y-32375042D01*
X140779511Y-33060757D02*
X140836654Y-33117900D01*
X140836654Y-33117900D02*
X140779511Y-33175042D01*
X140779511Y-33175042D02*
X140722368Y-33117900D01*
X140722368Y-33117900D02*
X140779511Y-33060757D01*
X140779511Y-33060757D02*
X140779511Y-33175042D01*
X141808083Y-33117900D02*
X141693797Y-33175042D01*
X141693797Y-33175042D02*
X141465226Y-33175042D01*
X141465226Y-33175042D02*
X141350940Y-33117900D01*
X141350940Y-33117900D02*
X141293797Y-33003614D01*
X141293797Y-33003614D02*
X141293797Y-32546471D01*
X141293797Y-32546471D02*
X141350940Y-32432185D01*
X141350940Y-32432185D02*
X141465226Y-32375042D01*
X141465226Y-32375042D02*
X141693797Y-32375042D01*
X141693797Y-32375042D02*
X141808083Y-32432185D01*
X141808083Y-32432185D02*
X141865226Y-32546471D01*
X141865226Y-32546471D02*
X141865226Y-32660757D01*
X141865226Y-32660757D02*
X141293797Y-32775042D01*
X142550939Y-33175042D02*
X142436654Y-33117900D01*
X142436654Y-33117900D02*
X142379511Y-33003614D01*
X142379511Y-33003614D02*
X142379511Y-31975042D01*
X143465225Y-33117900D02*
X143350939Y-33175042D01*
X143350939Y-33175042D02*
X143122368Y-33175042D01*
X143122368Y-33175042D02*
X143008082Y-33117900D01*
X143008082Y-33117900D02*
X142950939Y-33003614D01*
X142950939Y-33003614D02*
X142950939Y-32546471D01*
X142950939Y-32546471D02*
X143008082Y-32432185D01*
X143008082Y-32432185D02*
X143122368Y-32375042D01*
X143122368Y-32375042D02*
X143350939Y-32375042D01*
X143350939Y-32375042D02*
X143465225Y-32432185D01*
X143465225Y-32432185D02*
X143522368Y-32546471D01*
X143522368Y-32546471D02*
X143522368Y-32660757D01*
X143522368Y-32660757D02*
X142950939Y-32775042D01*
X144036653Y-33175042D02*
X144036653Y-31975042D01*
X144150939Y-32717900D02*
X144493796Y-33175042D01*
X144493796Y-32375042D02*
X144036653Y-32832185D01*
X144836653Y-32375042D02*
X145293796Y-32375042D01*
X145008082Y-31975042D02*
X145008082Y-33003614D01*
X145008082Y-33003614D02*
X145065225Y-33117900D01*
X145065225Y-33117900D02*
X145179510Y-33175042D01*
X145179510Y-33175042D02*
X145293796Y-33175042D01*
X145693796Y-33175042D02*
X145693796Y-32375042D01*
X145693796Y-32603614D02*
X145750939Y-32489328D01*
X145750939Y-32489328D02*
X145808082Y-32432185D01*
X145808082Y-32432185D02*
X145922367Y-32375042D01*
X145922367Y-32375042D02*
X146036653Y-32375042D01*
X146608081Y-33175042D02*
X146493796Y-33117900D01*
X146493796Y-33117900D02*
X146436653Y-33060757D01*
X146436653Y-33060757D02*
X146379510Y-32946471D01*
X146379510Y-32946471D02*
X146379510Y-32603614D01*
X146379510Y-32603614D02*
X146436653Y-32489328D01*
X146436653Y-32489328D02*
X146493796Y-32432185D01*
X146493796Y-32432185D02*
X146608081Y-32375042D01*
X146608081Y-32375042D02*
X146779510Y-32375042D01*
X146779510Y-32375042D02*
X146893796Y-32432185D01*
X146893796Y-32432185D02*
X146950939Y-32489328D01*
X146950939Y-32489328D02*
X147008081Y-32603614D01*
X147008081Y-32603614D02*
X147008081Y-32946471D01*
X147008081Y-32946471D02*
X146950939Y-33060757D01*
X146950939Y-33060757D02*
X146893796Y-33117900D01*
X146893796Y-33117900D02*
X146779510Y-33175042D01*
X146779510Y-33175042D02*
X146608081Y-33175042D01*
X147522367Y-33175042D02*
X147522367Y-31975042D01*
X147636653Y-32717900D02*
X147979510Y-33175042D01*
X147979510Y-32375042D02*
X147522367Y-32832185D01*
X148493796Y-33175042D02*
X148493796Y-32375042D01*
X148493796Y-32603614D02*
X148550939Y-32489328D01*
X148550939Y-32489328D02*
X148608082Y-32432185D01*
X148608082Y-32432185D02*
X148722367Y-32375042D01*
X148722367Y-32375042D02*
X148836653Y-32375042D01*
X149408081Y-33175042D02*
X149293796Y-33117900D01*
X149293796Y-33117900D02*
X149236653Y-33060757D01*
X149236653Y-33060757D02*
X149179510Y-32946471D01*
X149179510Y-32946471D02*
X149179510Y-32603614D01*
X149179510Y-32603614D02*
X149236653Y-32489328D01*
X149236653Y-32489328D02*
X149293796Y-32432185D01*
X149293796Y-32432185D02*
X149408081Y-32375042D01*
X149408081Y-32375042D02*
X149579510Y-32375042D01*
X149579510Y-32375042D02*
X149693796Y-32432185D01*
X149693796Y-32432185D02*
X149750939Y-32489328D01*
X149750939Y-32489328D02*
X149808081Y-32603614D01*
X149808081Y-32603614D02*
X149808081Y-32946471D01*
X149808081Y-32946471D02*
X149750939Y-33060757D01*
X149750939Y-33060757D02*
X149693796Y-33117900D01*
X149693796Y-33117900D02*
X149579510Y-33175042D01*
X149579510Y-33175042D02*
X149408081Y-33175042D01*
X150836653Y-32375042D02*
X150836653Y-33175042D01*
X150322367Y-32375042D02*
X150322367Y-33003614D01*
X150322367Y-33003614D02*
X150379510Y-33117900D01*
X150379510Y-33117900D02*
X150493795Y-33175042D01*
X150493795Y-33175042D02*
X150665224Y-33175042D01*
X150665224Y-33175042D02*
X150779510Y-33117900D01*
X150779510Y-33117900D02*
X150836653Y-33060757D01*
X151293795Y-32375042D02*
X151922367Y-32375042D01*
X151922367Y-32375042D02*
X151293795Y-33175042D01*
X151293795Y-33175042D02*
X151922367Y-33175042D01*
X152836653Y-33117900D02*
X152722367Y-33175042D01*
X152722367Y-33175042D02*
X152493796Y-33175042D01*
X152493796Y-33175042D02*
X152379510Y-33117900D01*
X152379510Y-33117900D02*
X152322367Y-33003614D01*
X152322367Y-33003614D02*
X152322367Y-32546471D01*
X152322367Y-32546471D02*
X152379510Y-32432185D01*
X152379510Y-32432185D02*
X152493796Y-32375042D01*
X152493796Y-32375042D02*
X152722367Y-32375042D01*
X152722367Y-32375042D02*
X152836653Y-32432185D01*
X152836653Y-32432185D02*
X152893796Y-32546471D01*
X152893796Y-32546471D02*
X152893796Y-32660757D01*
X152893796Y-32660757D02*
X152322367Y-32775042D01*
X153408081Y-33175042D02*
X153408081Y-31975042D01*
X153522367Y-32717900D02*
X153865224Y-33175042D01*
X153865224Y-32375042D02*
X153408081Y-32832185D01*
X154379510Y-33060757D02*
X154436653Y-33117900D01*
X154436653Y-33117900D02*
X154379510Y-33175042D01*
X154379510Y-33175042D02*
X154322367Y-33117900D01*
X154322367Y-33117900D02*
X154379510Y-33060757D01*
X154379510Y-33060757D02*
X154379510Y-33175042D01*
X155465225Y-33117900D02*
X155350939Y-33175042D01*
X155350939Y-33175042D02*
X155122367Y-33175042D01*
X155122367Y-33175042D02*
X155008082Y-33117900D01*
X155008082Y-33117900D02*
X154950939Y-33060757D01*
X154950939Y-33060757D02*
X154893796Y-32946471D01*
X154893796Y-32946471D02*
X154893796Y-32603614D01*
X154893796Y-32603614D02*
X154950939Y-32489328D01*
X154950939Y-32489328D02*
X155008082Y-32432185D01*
X155008082Y-32432185D02*
X155122367Y-32375042D01*
X155122367Y-32375042D02*
X155350939Y-32375042D01*
X155350939Y-32375042D02*
X155465225Y-32432185D01*
X155865224Y-32375042D02*
X156493796Y-32375042D01*
X156493796Y-32375042D02*
X155865224Y-33175042D01*
X155865224Y-33175042D02*
X156493796Y-33175042D01*
D11*
X145514792Y-137067219D02*
X145705268Y-137067219D01*
X145705268Y-137067219D02*
X145800506Y-137019600D01*
X145800506Y-137019600D02*
X145848125Y-136971980D01*
X145848125Y-136971980D02*
X145943363Y-136829123D01*
X145943363Y-136829123D02*
X145990982Y-136638647D01*
X145990982Y-136638647D02*
X145990982Y-136257695D01*
X145990982Y-136257695D02*
X145943363Y-136162457D01*
X145943363Y-136162457D02*
X145895744Y-136114838D01*
X145895744Y-136114838D02*
X145800506Y-136067219D01*
X145800506Y-136067219D02*
X145610030Y-136067219D01*
X145610030Y-136067219D02*
X145514792Y-136114838D01*
X145514792Y-136114838D02*
X145467173Y-136162457D01*
X145467173Y-136162457D02*
X145419554Y-136257695D01*
X145419554Y-136257695D02*
X145419554Y-136495790D01*
X145419554Y-136495790D02*
X145467173Y-136591028D01*
X145467173Y-136591028D02*
X145514792Y-136638647D01*
X145514792Y-136638647D02*
X145610030Y-136686266D01*
X145610030Y-136686266D02*
X145800506Y-136686266D01*
X145800506Y-136686266D02*
X145895744Y-136638647D01*
X145895744Y-136638647D02*
X145943363Y-136591028D01*
X145943363Y-136591028D02*
X145990982Y-136495790D01*
X146276697Y-136067219D02*
X146610030Y-137067219D01*
X146610030Y-137067219D02*
X146943363Y-136067219D01*
X143669673Y-136486266D02*
X144431578Y-136486266D01*
X148230326Y-136486266D02*
X147468422Y-136486266D01*
X147849374Y-136867219D02*
X147849374Y-136105314D01*
X160926816Y-138867219D02*
X161498244Y-138867219D01*
X161212530Y-139867219D02*
X161212530Y-138867219D01*
X162022054Y-138867219D02*
X162212530Y-138867219D01*
X162212530Y-138867219D02*
X162307768Y-138914838D01*
X162307768Y-138914838D02*
X162403006Y-139010076D01*
X162403006Y-139010076D02*
X162450625Y-139200552D01*
X162450625Y-139200552D02*
X162450625Y-139533885D01*
X162450625Y-139533885D02*
X162403006Y-139724361D01*
X162403006Y-139724361D02*
X162307768Y-139819600D01*
X162307768Y-139819600D02*
X162212530Y-139867219D01*
X162212530Y-139867219D02*
X162022054Y-139867219D01*
X162022054Y-139867219D02*
X161926816Y-139819600D01*
X161926816Y-139819600D02*
X161831578Y-139724361D01*
X161831578Y-139724361D02*
X161783959Y-139533885D01*
X161783959Y-139533885D02*
X161783959Y-139200552D01*
X161783959Y-139200552D02*
X161831578Y-139010076D01*
X161831578Y-139010076D02*
X161926816Y-138914838D01*
X161926816Y-138914838D02*
X162022054Y-138867219D01*
X162879197Y-139867219D02*
X162879197Y-138867219D01*
X162879197Y-138867219D02*
X163260149Y-138867219D01*
X163260149Y-138867219D02*
X163355387Y-138914838D01*
X163355387Y-138914838D02*
X163403006Y-138962457D01*
X163403006Y-138962457D02*
X163450625Y-139057695D01*
X163450625Y-139057695D02*
X163450625Y-139200552D01*
X163450625Y-139200552D02*
X163403006Y-139295790D01*
X163403006Y-139295790D02*
X163355387Y-139343409D01*
X163355387Y-139343409D02*
X163260149Y-139391028D01*
X163260149Y-139391028D02*
X162879197Y-139391028D01*
D12*
X155866667Y-129947200D02*
X156009524Y-129994819D01*
X156009524Y-129994819D02*
X156247619Y-129994819D01*
X156247619Y-129994819D02*
X156342857Y-129947200D01*
X156342857Y-129947200D02*
X156390476Y-129899580D01*
X156390476Y-129899580D02*
X156438095Y-129804342D01*
X156438095Y-129804342D02*
X156438095Y-129709104D01*
X156438095Y-129709104D02*
X156390476Y-129613866D01*
X156390476Y-129613866D02*
X156342857Y-129566247D01*
X156342857Y-129566247D02*
X156247619Y-129518628D01*
X156247619Y-129518628D02*
X156057143Y-129471009D01*
X156057143Y-129471009D02*
X155961905Y-129423390D01*
X155961905Y-129423390D02*
X155914286Y-129375771D01*
X155914286Y-129375771D02*
X155866667Y-129280533D01*
X155866667Y-129280533D02*
X155866667Y-129185295D01*
X155866667Y-129185295D02*
X155914286Y-129090057D01*
X155914286Y-129090057D02*
X155961905Y-129042438D01*
X155961905Y-129042438D02*
X156057143Y-128994819D01*
X156057143Y-128994819D02*
X156295238Y-128994819D01*
X156295238Y-128994819D02*
X156438095Y-129042438D01*
X156771429Y-128994819D02*
X157009524Y-129994819D01*
X157009524Y-129994819D02*
X157200000Y-129280533D01*
X157200000Y-129280533D02*
X157390476Y-129994819D01*
X157390476Y-129994819D02*
X157628572Y-128994819D01*
X158533333Y-129994819D02*
X157961905Y-129994819D01*
X158247619Y-129994819D02*
X158247619Y-128994819D01*
X158247619Y-128994819D02*
X158152381Y-129137676D01*
X158152381Y-129137676D02*
X158057143Y-129232914D01*
X158057143Y-129232914D02*
X157961905Y-129280533D01*
X161355714Y-42454819D02*
X161355714Y-41454819D01*
X161355714Y-41454819D02*
X161593809Y-41454819D01*
X161593809Y-41454819D02*
X161736666Y-41502438D01*
X161736666Y-41502438D02*
X161831904Y-41597676D01*
X161831904Y-41597676D02*
X161879523Y-41692914D01*
X161879523Y-41692914D02*
X161927142Y-41883390D01*
X161927142Y-41883390D02*
X161927142Y-42026247D01*
X161927142Y-42026247D02*
X161879523Y-42216723D01*
X161879523Y-42216723D02*
X161831904Y-42311961D01*
X161831904Y-42311961D02*
X161736666Y-42407200D01*
X161736666Y-42407200D02*
X161593809Y-42454819D01*
X161593809Y-42454819D02*
X161355714Y-42454819D01*
X162879523Y-42454819D02*
X162308095Y-42454819D01*
X162593809Y-42454819D02*
X162593809Y-41454819D01*
X162593809Y-41454819D02*
X162498571Y-41597676D01*
X162498571Y-41597676D02*
X162403333Y-41692914D01*
X162403333Y-41692914D02*
X162308095Y-41740533D01*
X163498571Y-41454819D02*
X163593809Y-41454819D01*
X163593809Y-41454819D02*
X163689047Y-41502438D01*
X163689047Y-41502438D02*
X163736666Y-41550057D01*
X163736666Y-41550057D02*
X163784285Y-41645295D01*
X163784285Y-41645295D02*
X163831904Y-41835771D01*
X163831904Y-41835771D02*
X163831904Y-42073866D01*
X163831904Y-42073866D02*
X163784285Y-42264342D01*
X163784285Y-42264342D02*
X163736666Y-42359580D01*
X163736666Y-42359580D02*
X163689047Y-42407200D01*
X163689047Y-42407200D02*
X163593809Y-42454819D01*
X163593809Y-42454819D02*
X163498571Y-42454819D01*
X163498571Y-42454819D02*
X163403333Y-42407200D01*
X163403333Y-42407200D02*
X163355714Y-42359580D01*
X163355714Y-42359580D02*
X163308095Y-42264342D01*
X163308095Y-42264342D02*
X163260476Y-42073866D01*
X163260476Y-42073866D02*
X163260476Y-41835771D01*
X163260476Y-41835771D02*
X163308095Y-41645295D01*
X163308095Y-41645295D02*
X163355714Y-41550057D01*
X163355714Y-41550057D02*
X163403333Y-41502438D01*
X163403333Y-41502438D02*
X163498571Y-41454819D01*
D13*
X134866667Y-129909800D02*
X135009524Y-129957419D01*
X135009524Y-129957419D02*
X135247619Y-129957419D01*
X135247619Y-129957419D02*
X135342857Y-129909800D01*
X135342857Y-129909800D02*
X135390476Y-129862180D01*
X135390476Y-129862180D02*
X135438095Y-129766942D01*
X135438095Y-129766942D02*
X135438095Y-129671704D01*
X135438095Y-129671704D02*
X135390476Y-129576466D01*
X135390476Y-129576466D02*
X135342857Y-129528847D01*
X135342857Y-129528847D02*
X135247619Y-129481228D01*
X135247619Y-129481228D02*
X135057143Y-129433609D01*
X135057143Y-129433609D02*
X134961905Y-129385990D01*
X134961905Y-129385990D02*
X134914286Y-129338371D01*
X134914286Y-129338371D02*
X134866667Y-129243133D01*
X134866667Y-129243133D02*
X134866667Y-129147895D01*
X134866667Y-129147895D02*
X134914286Y-129052657D01*
X134914286Y-129052657D02*
X134961905Y-129005038D01*
X134961905Y-129005038D02*
X135057143Y-128957419D01*
X135057143Y-128957419D02*
X135295238Y-128957419D01*
X135295238Y-128957419D02*
X135438095Y-129005038D01*
X135771429Y-128957419D02*
X136009524Y-129957419D01*
X136009524Y-129957419D02*
X136200000Y-129243133D01*
X136200000Y-129243133D02*
X136390476Y-129957419D01*
X136390476Y-129957419D02*
X136628572Y-128957419D01*
X137438095Y-129290752D02*
X137438095Y-129957419D01*
X137200000Y-128909800D02*
X136961905Y-129624085D01*
X136961905Y-129624085D02*
X137580952Y-129624085D01*
D12*
X161831905Y-48454819D02*
X161831905Y-47454819D01*
X161831905Y-47454819D02*
X162070000Y-47454819D01*
X162070000Y-47454819D02*
X162212857Y-47502438D01*
X162212857Y-47502438D02*
X162308095Y-47597676D01*
X162308095Y-47597676D02*
X162355714Y-47692914D01*
X162355714Y-47692914D02*
X162403333Y-47883390D01*
X162403333Y-47883390D02*
X162403333Y-48026247D01*
X162403333Y-48026247D02*
X162355714Y-48216723D01*
X162355714Y-48216723D02*
X162308095Y-48311961D01*
X162308095Y-48311961D02*
X162212857Y-48407200D01*
X162212857Y-48407200D02*
X162070000Y-48454819D01*
X162070000Y-48454819D02*
X161831905Y-48454819D01*
X162879524Y-48454819D02*
X163070000Y-48454819D01*
X163070000Y-48454819D02*
X163165238Y-48407200D01*
X163165238Y-48407200D02*
X163212857Y-48359580D01*
X163212857Y-48359580D02*
X163308095Y-48216723D01*
X163308095Y-48216723D02*
X163355714Y-48026247D01*
X163355714Y-48026247D02*
X163355714Y-47645295D01*
X163355714Y-47645295D02*
X163308095Y-47550057D01*
X163308095Y-47550057D02*
X163260476Y-47502438D01*
X163260476Y-47502438D02*
X163165238Y-47454819D01*
X163165238Y-47454819D02*
X162974762Y-47454819D01*
X162974762Y-47454819D02*
X162879524Y-47502438D01*
X162879524Y-47502438D02*
X162831905Y-47550057D01*
X162831905Y-47550057D02*
X162784286Y-47645295D01*
X162784286Y-47645295D02*
X162784286Y-47883390D01*
X162784286Y-47883390D02*
X162831905Y-47978628D01*
X162831905Y-47978628D02*
X162879524Y-48026247D01*
X162879524Y-48026247D02*
X162974762Y-48073866D01*
X162974762Y-48073866D02*
X163165238Y-48073866D01*
X163165238Y-48073866D02*
X163260476Y-48026247D01*
X163260476Y-48026247D02*
X163308095Y-47978628D01*
X163308095Y-47978628D02*
X163355714Y-47883390D01*
X135191667Y-113437200D02*
X135334524Y-113484819D01*
X135334524Y-113484819D02*
X135572619Y-113484819D01*
X135572619Y-113484819D02*
X135667857Y-113437200D01*
X135667857Y-113437200D02*
X135715476Y-113389580D01*
X135715476Y-113389580D02*
X135763095Y-113294342D01*
X135763095Y-113294342D02*
X135763095Y-113199104D01*
X135763095Y-113199104D02*
X135715476Y-113103866D01*
X135715476Y-113103866D02*
X135667857Y-113056247D01*
X135667857Y-113056247D02*
X135572619Y-113008628D01*
X135572619Y-113008628D02*
X135382143Y-112961009D01*
X135382143Y-112961009D02*
X135286905Y-112913390D01*
X135286905Y-112913390D02*
X135239286Y-112865771D01*
X135239286Y-112865771D02*
X135191667Y-112770533D01*
X135191667Y-112770533D02*
X135191667Y-112675295D01*
X135191667Y-112675295D02*
X135239286Y-112580057D01*
X135239286Y-112580057D02*
X135286905Y-112532438D01*
X135286905Y-112532438D02*
X135382143Y-112484819D01*
X135382143Y-112484819D02*
X135620238Y-112484819D01*
X135620238Y-112484819D02*
X135763095Y-112532438D01*
X136096429Y-112484819D02*
X136334524Y-113484819D01*
X136334524Y-113484819D02*
X136525000Y-112770533D01*
X136525000Y-112770533D02*
X136715476Y-113484819D01*
X136715476Y-113484819D02*
X136953572Y-112484819D01*
X137239286Y-112484819D02*
X137858333Y-112484819D01*
X137858333Y-112484819D02*
X137525000Y-112865771D01*
X137525000Y-112865771D02*
X137667857Y-112865771D01*
X137667857Y-112865771D02*
X137763095Y-112913390D01*
X137763095Y-112913390D02*
X137810714Y-112961009D01*
X137810714Y-112961009D02*
X137858333Y-113056247D01*
X137858333Y-113056247D02*
X137858333Y-113294342D01*
X137858333Y-113294342D02*
X137810714Y-113389580D01*
X137810714Y-113389580D02*
X137763095Y-113437200D01*
X137763095Y-113437200D02*
X137667857Y-113484819D01*
X137667857Y-113484819D02*
X137382143Y-113484819D01*
X137382143Y-113484819D02*
X137286905Y-113437200D01*
X137286905Y-113437200D02*
X137239286Y-113389580D01*
X129320714Y-42454819D02*
X129320714Y-41454819D01*
X129320714Y-41454819D02*
X129558809Y-41454819D01*
X129558809Y-41454819D02*
X129701666Y-41502438D01*
X129701666Y-41502438D02*
X129796904Y-41597676D01*
X129796904Y-41597676D02*
X129844523Y-41692914D01*
X129844523Y-41692914D02*
X129892142Y-41883390D01*
X129892142Y-41883390D02*
X129892142Y-42026247D01*
X129892142Y-42026247D02*
X129844523Y-42216723D01*
X129844523Y-42216723D02*
X129796904Y-42311961D01*
X129796904Y-42311961D02*
X129701666Y-42407200D01*
X129701666Y-42407200D02*
X129558809Y-42454819D01*
X129558809Y-42454819D02*
X129320714Y-42454819D01*
X130273095Y-41550057D02*
X130320714Y-41502438D01*
X130320714Y-41502438D02*
X130415952Y-41454819D01*
X130415952Y-41454819D02*
X130654047Y-41454819D01*
X130654047Y-41454819D02*
X130749285Y-41502438D01*
X130749285Y-41502438D02*
X130796904Y-41550057D01*
X130796904Y-41550057D02*
X130844523Y-41645295D01*
X130844523Y-41645295D02*
X130844523Y-41740533D01*
X130844523Y-41740533D02*
X130796904Y-41883390D01*
X130796904Y-41883390D02*
X130225476Y-42454819D01*
X130225476Y-42454819D02*
X130844523Y-42454819D01*
X131463571Y-41454819D02*
X131558809Y-41454819D01*
X131558809Y-41454819D02*
X131654047Y-41502438D01*
X131654047Y-41502438D02*
X131701666Y-41550057D01*
X131701666Y-41550057D02*
X131749285Y-41645295D01*
X131749285Y-41645295D02*
X131796904Y-41835771D01*
X131796904Y-41835771D02*
X131796904Y-42073866D01*
X131796904Y-42073866D02*
X131749285Y-42264342D01*
X131749285Y-42264342D02*
X131701666Y-42359580D01*
X131701666Y-42359580D02*
X131654047Y-42407200D01*
X131654047Y-42407200D02*
X131558809Y-42454819D01*
X131558809Y-42454819D02*
X131463571Y-42454819D01*
X131463571Y-42454819D02*
X131368333Y-42407200D01*
X131368333Y-42407200D02*
X131320714Y-42359580D01*
X131320714Y-42359580D02*
X131273095Y-42264342D01*
X131273095Y-42264342D02*
X131225476Y-42073866D01*
X131225476Y-42073866D02*
X131225476Y-41835771D01*
X131225476Y-41835771D02*
X131273095Y-41645295D01*
X131273095Y-41645295D02*
X131320714Y-41550057D01*
X131320714Y-41550057D02*
X131368333Y-41502438D01*
X131368333Y-41502438D02*
X131463571Y-41454819D01*
X155866667Y-113437200D02*
X156009524Y-113484819D01*
X156009524Y-113484819D02*
X156247619Y-113484819D01*
X156247619Y-113484819D02*
X156342857Y-113437200D01*
X156342857Y-113437200D02*
X156390476Y-113389580D01*
X156390476Y-113389580D02*
X156438095Y-113294342D01*
X156438095Y-113294342D02*
X156438095Y-113199104D01*
X156438095Y-113199104D02*
X156390476Y-113103866D01*
X156390476Y-113103866D02*
X156342857Y-113056247D01*
X156342857Y-113056247D02*
X156247619Y-113008628D01*
X156247619Y-113008628D02*
X156057143Y-112961009D01*
X156057143Y-112961009D02*
X155961905Y-112913390D01*
X155961905Y-112913390D02*
X155914286Y-112865771D01*
X155914286Y-112865771D02*
X155866667Y-112770533D01*
X155866667Y-112770533D02*
X155866667Y-112675295D01*
X155866667Y-112675295D02*
X155914286Y-112580057D01*
X155914286Y-112580057D02*
X155961905Y-112532438D01*
X155961905Y-112532438D02*
X156057143Y-112484819D01*
X156057143Y-112484819D02*
X156295238Y-112484819D01*
X156295238Y-112484819D02*
X156438095Y-112532438D01*
X156771429Y-112484819D02*
X157009524Y-113484819D01*
X157009524Y-113484819D02*
X157200000Y-112770533D01*
X157200000Y-112770533D02*
X157390476Y-113484819D01*
X157390476Y-113484819D02*
X157628572Y-112484819D01*
X157961905Y-112580057D02*
X158009524Y-112532438D01*
X158009524Y-112532438D02*
X158104762Y-112484819D01*
X158104762Y-112484819D02*
X158342857Y-112484819D01*
X158342857Y-112484819D02*
X158438095Y-112532438D01*
X158438095Y-112532438D02*
X158485714Y-112580057D01*
X158485714Y-112580057D02*
X158533333Y-112675295D01*
X158533333Y-112675295D02*
X158533333Y-112770533D01*
X158533333Y-112770533D02*
X158485714Y-112913390D01*
X158485714Y-112913390D02*
X157914286Y-113484819D01*
X157914286Y-113484819D02*
X158533333Y-113484819D01*
X129320714Y-48454819D02*
X129320714Y-47454819D01*
X129320714Y-47454819D02*
X129558809Y-47454819D01*
X129558809Y-47454819D02*
X129701666Y-47502438D01*
X129701666Y-47502438D02*
X129796904Y-47597676D01*
X129796904Y-47597676D02*
X129844523Y-47692914D01*
X129844523Y-47692914D02*
X129892142Y-47883390D01*
X129892142Y-47883390D02*
X129892142Y-48026247D01*
X129892142Y-48026247D02*
X129844523Y-48216723D01*
X129844523Y-48216723D02*
X129796904Y-48311961D01*
X129796904Y-48311961D02*
X129701666Y-48407200D01*
X129701666Y-48407200D02*
X129558809Y-48454819D01*
X129558809Y-48454819D02*
X129320714Y-48454819D01*
X130844523Y-48454819D02*
X130273095Y-48454819D01*
X130558809Y-48454819D02*
X130558809Y-47454819D01*
X130558809Y-47454819D02*
X130463571Y-47597676D01*
X130463571Y-47597676D02*
X130368333Y-47692914D01*
X130368333Y-47692914D02*
X130273095Y-47740533D01*
X131320714Y-48454819D02*
X131511190Y-48454819D01*
X131511190Y-48454819D02*
X131606428Y-48407200D01*
X131606428Y-48407200D02*
X131654047Y-48359580D01*
X131654047Y-48359580D02*
X131749285Y-48216723D01*
X131749285Y-48216723D02*
X131796904Y-48026247D01*
X131796904Y-48026247D02*
X131796904Y-47645295D01*
X131796904Y-47645295D02*
X131749285Y-47550057D01*
X131749285Y-47550057D02*
X131701666Y-47502438D01*
X131701666Y-47502438D02*
X131606428Y-47454819D01*
X131606428Y-47454819D02*
X131415952Y-47454819D01*
X131415952Y-47454819D02*
X131320714Y-47502438D01*
X131320714Y-47502438D02*
X131273095Y-47550057D01*
X131273095Y-47550057D02*
X131225476Y-47645295D01*
X131225476Y-47645295D02*
X131225476Y-47883390D01*
X131225476Y-47883390D02*
X131273095Y-47978628D01*
X131273095Y-47978628D02*
X131320714Y-48026247D01*
X131320714Y-48026247D02*
X131415952Y-48073866D01*
X131415952Y-48073866D02*
X131606428Y-48073866D01*
X131606428Y-48073866D02*
X131701666Y-48026247D01*
X131701666Y-48026247D02*
X131749285Y-47978628D01*
X131749285Y-47978628D02*
X131796904Y-47883390D01*
X129320714Y-96454819D02*
X129320714Y-95454819D01*
X129320714Y-95454819D02*
X129558809Y-95454819D01*
X129558809Y-95454819D02*
X129701666Y-95502438D01*
X129701666Y-95502438D02*
X129796904Y-95597676D01*
X129796904Y-95597676D02*
X129844523Y-95692914D01*
X129844523Y-95692914D02*
X129892142Y-95883390D01*
X129892142Y-95883390D02*
X129892142Y-96026247D01*
X129892142Y-96026247D02*
X129844523Y-96216723D01*
X129844523Y-96216723D02*
X129796904Y-96311961D01*
X129796904Y-96311961D02*
X129701666Y-96407200D01*
X129701666Y-96407200D02*
X129558809Y-96454819D01*
X129558809Y-96454819D02*
X129320714Y-96454819D01*
X130844523Y-96454819D02*
X130273095Y-96454819D01*
X130558809Y-96454819D02*
X130558809Y-95454819D01*
X130558809Y-95454819D02*
X130463571Y-95597676D01*
X130463571Y-95597676D02*
X130368333Y-95692914D01*
X130368333Y-95692914D02*
X130273095Y-95740533D01*
X131796904Y-96454819D02*
X131225476Y-96454819D01*
X131511190Y-96454819D02*
X131511190Y-95454819D01*
X131511190Y-95454819D02*
X131415952Y-95597676D01*
X131415952Y-95597676D02*
X131320714Y-95692914D01*
X131320714Y-95692914D02*
X131225476Y-95740533D01*
X129320714Y-72454819D02*
X129320714Y-71454819D01*
X129320714Y-71454819D02*
X129558809Y-71454819D01*
X129558809Y-71454819D02*
X129701666Y-71502438D01*
X129701666Y-71502438D02*
X129796904Y-71597676D01*
X129796904Y-71597676D02*
X129844523Y-71692914D01*
X129844523Y-71692914D02*
X129892142Y-71883390D01*
X129892142Y-71883390D02*
X129892142Y-72026247D01*
X129892142Y-72026247D02*
X129844523Y-72216723D01*
X129844523Y-72216723D02*
X129796904Y-72311961D01*
X129796904Y-72311961D02*
X129701666Y-72407200D01*
X129701666Y-72407200D02*
X129558809Y-72454819D01*
X129558809Y-72454819D02*
X129320714Y-72454819D01*
X130844523Y-72454819D02*
X130273095Y-72454819D01*
X130558809Y-72454819D02*
X130558809Y-71454819D01*
X130558809Y-71454819D02*
X130463571Y-71597676D01*
X130463571Y-71597676D02*
X130368333Y-71692914D01*
X130368333Y-71692914D02*
X130273095Y-71740533D01*
X131749285Y-71454819D02*
X131273095Y-71454819D01*
X131273095Y-71454819D02*
X131225476Y-71931009D01*
X131225476Y-71931009D02*
X131273095Y-71883390D01*
X131273095Y-71883390D02*
X131368333Y-71835771D01*
X131368333Y-71835771D02*
X131606428Y-71835771D01*
X131606428Y-71835771D02*
X131701666Y-71883390D01*
X131701666Y-71883390D02*
X131749285Y-71931009D01*
X131749285Y-71931009D02*
X131796904Y-72026247D01*
X131796904Y-72026247D02*
X131796904Y-72264342D01*
X131796904Y-72264342D02*
X131749285Y-72359580D01*
X131749285Y-72359580D02*
X131701666Y-72407200D01*
X131701666Y-72407200D02*
X131606428Y-72454819D01*
X131606428Y-72454819D02*
X131368333Y-72454819D01*
X131368333Y-72454819D02*
X131273095Y-72407200D01*
X131273095Y-72407200D02*
X131225476Y-72359580D01*
X129320714Y-60454819D02*
X129320714Y-59454819D01*
X129320714Y-59454819D02*
X129558809Y-59454819D01*
X129558809Y-59454819D02*
X129701666Y-59502438D01*
X129701666Y-59502438D02*
X129796904Y-59597676D01*
X129796904Y-59597676D02*
X129844523Y-59692914D01*
X129844523Y-59692914D02*
X129892142Y-59883390D01*
X129892142Y-59883390D02*
X129892142Y-60026247D01*
X129892142Y-60026247D02*
X129844523Y-60216723D01*
X129844523Y-60216723D02*
X129796904Y-60311961D01*
X129796904Y-60311961D02*
X129701666Y-60407200D01*
X129701666Y-60407200D02*
X129558809Y-60454819D01*
X129558809Y-60454819D02*
X129320714Y-60454819D01*
X130844523Y-60454819D02*
X130273095Y-60454819D01*
X130558809Y-60454819D02*
X130558809Y-59454819D01*
X130558809Y-59454819D02*
X130463571Y-59597676D01*
X130463571Y-59597676D02*
X130368333Y-59692914D01*
X130368333Y-59692914D02*
X130273095Y-59740533D01*
X131177857Y-59454819D02*
X131844523Y-59454819D01*
X131844523Y-59454819D02*
X131415952Y-60454819D01*
X162031905Y-78454819D02*
X162031905Y-77454819D01*
X162031905Y-77454819D02*
X162270000Y-77454819D01*
X162270000Y-77454819D02*
X162412857Y-77502438D01*
X162412857Y-77502438D02*
X162508095Y-77597676D01*
X162508095Y-77597676D02*
X162555714Y-77692914D01*
X162555714Y-77692914D02*
X162603333Y-77883390D01*
X162603333Y-77883390D02*
X162603333Y-78026247D01*
X162603333Y-78026247D02*
X162555714Y-78216723D01*
X162555714Y-78216723D02*
X162508095Y-78311961D01*
X162508095Y-78311961D02*
X162412857Y-78407200D01*
X162412857Y-78407200D02*
X162270000Y-78454819D01*
X162270000Y-78454819D02*
X162031905Y-78454819D01*
X163460476Y-77788152D02*
X163460476Y-78454819D01*
X163222381Y-77407200D02*
X162984286Y-78121485D01*
X162984286Y-78121485D02*
X163603333Y-78121485D01*
X129320714Y-84454819D02*
X129320714Y-83454819D01*
X129320714Y-83454819D02*
X129558809Y-83454819D01*
X129558809Y-83454819D02*
X129701666Y-83502438D01*
X129701666Y-83502438D02*
X129796904Y-83597676D01*
X129796904Y-83597676D02*
X129844523Y-83692914D01*
X129844523Y-83692914D02*
X129892142Y-83883390D01*
X129892142Y-83883390D02*
X129892142Y-84026247D01*
X129892142Y-84026247D02*
X129844523Y-84216723D01*
X129844523Y-84216723D02*
X129796904Y-84311961D01*
X129796904Y-84311961D02*
X129701666Y-84407200D01*
X129701666Y-84407200D02*
X129558809Y-84454819D01*
X129558809Y-84454819D02*
X129320714Y-84454819D01*
X130844523Y-84454819D02*
X130273095Y-84454819D01*
X130558809Y-84454819D02*
X130558809Y-83454819D01*
X130558809Y-83454819D02*
X130463571Y-83597676D01*
X130463571Y-83597676D02*
X130368333Y-83692914D01*
X130368333Y-83692914D02*
X130273095Y-83740533D01*
X131177857Y-83454819D02*
X131796904Y-83454819D01*
X131796904Y-83454819D02*
X131463571Y-83835771D01*
X131463571Y-83835771D02*
X131606428Y-83835771D01*
X131606428Y-83835771D02*
X131701666Y-83883390D01*
X131701666Y-83883390D02*
X131749285Y-83931009D01*
X131749285Y-83931009D02*
X131796904Y-84026247D01*
X131796904Y-84026247D02*
X131796904Y-84264342D01*
X131796904Y-84264342D02*
X131749285Y-84359580D01*
X131749285Y-84359580D02*
X131701666Y-84407200D01*
X131701666Y-84407200D02*
X131606428Y-84454819D01*
X131606428Y-84454819D02*
X131320714Y-84454819D01*
X131320714Y-84454819D02*
X131225476Y-84407200D01*
X131225476Y-84407200D02*
X131177857Y-84359580D01*
X162031905Y-84454819D02*
X162031905Y-83454819D01*
X162031905Y-83454819D02*
X162270000Y-83454819D01*
X162270000Y-83454819D02*
X162412857Y-83502438D01*
X162412857Y-83502438D02*
X162508095Y-83597676D01*
X162508095Y-83597676D02*
X162555714Y-83692914D01*
X162555714Y-83692914D02*
X162603333Y-83883390D01*
X162603333Y-83883390D02*
X162603333Y-84026247D01*
X162603333Y-84026247D02*
X162555714Y-84216723D01*
X162555714Y-84216723D02*
X162508095Y-84311961D01*
X162508095Y-84311961D02*
X162412857Y-84407200D01*
X162412857Y-84407200D02*
X162270000Y-84454819D01*
X162270000Y-84454819D02*
X162031905Y-84454819D01*
X162936667Y-83454819D02*
X163555714Y-83454819D01*
X163555714Y-83454819D02*
X163222381Y-83835771D01*
X163222381Y-83835771D02*
X163365238Y-83835771D01*
X163365238Y-83835771D02*
X163460476Y-83883390D01*
X163460476Y-83883390D02*
X163508095Y-83931009D01*
X163508095Y-83931009D02*
X163555714Y-84026247D01*
X163555714Y-84026247D02*
X163555714Y-84264342D01*
X163555714Y-84264342D02*
X163508095Y-84359580D01*
X163508095Y-84359580D02*
X163460476Y-84407200D01*
X163460476Y-84407200D02*
X163365238Y-84454819D01*
X163365238Y-84454819D02*
X163079524Y-84454819D01*
X163079524Y-84454819D02*
X162984286Y-84407200D01*
X162984286Y-84407200D02*
X162936667Y-84359580D01*
X129320714Y-54454819D02*
X129320714Y-53454819D01*
X129320714Y-53454819D02*
X129558809Y-53454819D01*
X129558809Y-53454819D02*
X129701666Y-53502438D01*
X129701666Y-53502438D02*
X129796904Y-53597676D01*
X129796904Y-53597676D02*
X129844523Y-53692914D01*
X129844523Y-53692914D02*
X129892142Y-53883390D01*
X129892142Y-53883390D02*
X129892142Y-54026247D01*
X129892142Y-54026247D02*
X129844523Y-54216723D01*
X129844523Y-54216723D02*
X129796904Y-54311961D01*
X129796904Y-54311961D02*
X129701666Y-54407200D01*
X129701666Y-54407200D02*
X129558809Y-54454819D01*
X129558809Y-54454819D02*
X129320714Y-54454819D01*
X130844523Y-54454819D02*
X130273095Y-54454819D01*
X130558809Y-54454819D02*
X130558809Y-53454819D01*
X130558809Y-53454819D02*
X130463571Y-53597676D01*
X130463571Y-53597676D02*
X130368333Y-53692914D01*
X130368333Y-53692914D02*
X130273095Y-53740533D01*
X131415952Y-53883390D02*
X131320714Y-53835771D01*
X131320714Y-53835771D02*
X131273095Y-53788152D01*
X131273095Y-53788152D02*
X131225476Y-53692914D01*
X131225476Y-53692914D02*
X131225476Y-53645295D01*
X131225476Y-53645295D02*
X131273095Y-53550057D01*
X131273095Y-53550057D02*
X131320714Y-53502438D01*
X131320714Y-53502438D02*
X131415952Y-53454819D01*
X131415952Y-53454819D02*
X131606428Y-53454819D01*
X131606428Y-53454819D02*
X131701666Y-53502438D01*
X131701666Y-53502438D02*
X131749285Y-53550057D01*
X131749285Y-53550057D02*
X131796904Y-53645295D01*
X131796904Y-53645295D02*
X131796904Y-53692914D01*
X131796904Y-53692914D02*
X131749285Y-53788152D01*
X131749285Y-53788152D02*
X131701666Y-53835771D01*
X131701666Y-53835771D02*
X131606428Y-53883390D01*
X131606428Y-53883390D02*
X131415952Y-53883390D01*
X131415952Y-53883390D02*
X131320714Y-53931009D01*
X131320714Y-53931009D02*
X131273095Y-53978628D01*
X131273095Y-53978628D02*
X131225476Y-54073866D01*
X131225476Y-54073866D02*
X131225476Y-54264342D01*
X131225476Y-54264342D02*
X131273095Y-54359580D01*
X131273095Y-54359580D02*
X131320714Y-54407200D01*
X131320714Y-54407200D02*
X131415952Y-54454819D01*
X131415952Y-54454819D02*
X131606428Y-54454819D01*
X131606428Y-54454819D02*
X131701666Y-54407200D01*
X131701666Y-54407200D02*
X131749285Y-54359580D01*
X131749285Y-54359580D02*
X131796904Y-54264342D01*
X131796904Y-54264342D02*
X131796904Y-54073866D01*
X131796904Y-54073866D02*
X131749285Y-53978628D01*
X131749285Y-53978628D02*
X131701666Y-53931009D01*
X131701666Y-53931009D02*
X131606428Y-53883390D01*
X161831905Y-72454819D02*
X161831905Y-71454819D01*
X161831905Y-71454819D02*
X162070000Y-71454819D01*
X162070000Y-71454819D02*
X162212857Y-71502438D01*
X162212857Y-71502438D02*
X162308095Y-71597676D01*
X162308095Y-71597676D02*
X162355714Y-71692914D01*
X162355714Y-71692914D02*
X162403333Y-71883390D01*
X162403333Y-71883390D02*
X162403333Y-72026247D01*
X162403333Y-72026247D02*
X162355714Y-72216723D01*
X162355714Y-72216723D02*
X162308095Y-72311961D01*
X162308095Y-72311961D02*
X162212857Y-72407200D01*
X162212857Y-72407200D02*
X162070000Y-72454819D01*
X162070000Y-72454819D02*
X161831905Y-72454819D01*
X163308095Y-71454819D02*
X162831905Y-71454819D01*
X162831905Y-71454819D02*
X162784286Y-71931009D01*
X162784286Y-71931009D02*
X162831905Y-71883390D01*
X162831905Y-71883390D02*
X162927143Y-71835771D01*
X162927143Y-71835771D02*
X163165238Y-71835771D01*
X163165238Y-71835771D02*
X163260476Y-71883390D01*
X163260476Y-71883390D02*
X163308095Y-71931009D01*
X163308095Y-71931009D02*
X163355714Y-72026247D01*
X163355714Y-72026247D02*
X163355714Y-72264342D01*
X163355714Y-72264342D02*
X163308095Y-72359580D01*
X163308095Y-72359580D02*
X163260476Y-72407200D01*
X163260476Y-72407200D02*
X163165238Y-72454819D01*
X163165238Y-72454819D02*
X162927143Y-72454819D01*
X162927143Y-72454819D02*
X162831905Y-72407200D01*
X162831905Y-72407200D02*
X162784286Y-72359580D01*
X162031905Y-96454819D02*
X162031905Y-95454819D01*
X162031905Y-95454819D02*
X162270000Y-95454819D01*
X162270000Y-95454819D02*
X162412857Y-95502438D01*
X162412857Y-95502438D02*
X162508095Y-95597676D01*
X162508095Y-95597676D02*
X162555714Y-95692914D01*
X162555714Y-95692914D02*
X162603333Y-95883390D01*
X162603333Y-95883390D02*
X162603333Y-96026247D01*
X162603333Y-96026247D02*
X162555714Y-96216723D01*
X162555714Y-96216723D02*
X162508095Y-96311961D01*
X162508095Y-96311961D02*
X162412857Y-96407200D01*
X162412857Y-96407200D02*
X162270000Y-96454819D01*
X162270000Y-96454819D02*
X162031905Y-96454819D01*
X163555714Y-96454819D02*
X162984286Y-96454819D01*
X163270000Y-96454819D02*
X163270000Y-95454819D01*
X163270000Y-95454819D02*
X163174762Y-95597676D01*
X163174762Y-95597676D02*
X163079524Y-95692914D01*
X163079524Y-95692914D02*
X162984286Y-95740533D01*
X161631905Y-60454819D02*
X161631905Y-59454819D01*
X161631905Y-59454819D02*
X161870000Y-59454819D01*
X161870000Y-59454819D02*
X162012857Y-59502438D01*
X162012857Y-59502438D02*
X162108095Y-59597676D01*
X162108095Y-59597676D02*
X162155714Y-59692914D01*
X162155714Y-59692914D02*
X162203333Y-59883390D01*
X162203333Y-59883390D02*
X162203333Y-60026247D01*
X162203333Y-60026247D02*
X162155714Y-60216723D01*
X162155714Y-60216723D02*
X162108095Y-60311961D01*
X162108095Y-60311961D02*
X162012857Y-60407200D01*
X162012857Y-60407200D02*
X161870000Y-60454819D01*
X161870000Y-60454819D02*
X161631905Y-60454819D01*
X162536667Y-59454819D02*
X163203333Y-59454819D01*
X163203333Y-59454819D02*
X162774762Y-60454819D01*
X129320714Y-78454819D02*
X129320714Y-77454819D01*
X129320714Y-77454819D02*
X129558809Y-77454819D01*
X129558809Y-77454819D02*
X129701666Y-77502438D01*
X129701666Y-77502438D02*
X129796904Y-77597676D01*
X129796904Y-77597676D02*
X129844523Y-77692914D01*
X129844523Y-77692914D02*
X129892142Y-77883390D01*
X129892142Y-77883390D02*
X129892142Y-78026247D01*
X129892142Y-78026247D02*
X129844523Y-78216723D01*
X129844523Y-78216723D02*
X129796904Y-78311961D01*
X129796904Y-78311961D02*
X129701666Y-78407200D01*
X129701666Y-78407200D02*
X129558809Y-78454819D01*
X129558809Y-78454819D02*
X129320714Y-78454819D01*
X130844523Y-78454819D02*
X130273095Y-78454819D01*
X130558809Y-78454819D02*
X130558809Y-77454819D01*
X130558809Y-77454819D02*
X130463571Y-77597676D01*
X130463571Y-77597676D02*
X130368333Y-77692914D01*
X130368333Y-77692914D02*
X130273095Y-77740533D01*
X131701666Y-77788152D02*
X131701666Y-78454819D01*
X131463571Y-77407200D02*
X131225476Y-78121485D01*
X131225476Y-78121485D02*
X131844523Y-78121485D01*
X161831905Y-66454819D02*
X161831905Y-65454819D01*
X161831905Y-65454819D02*
X162070000Y-65454819D01*
X162070000Y-65454819D02*
X162212857Y-65502438D01*
X162212857Y-65502438D02*
X162308095Y-65597676D01*
X162308095Y-65597676D02*
X162355714Y-65692914D01*
X162355714Y-65692914D02*
X162403333Y-65883390D01*
X162403333Y-65883390D02*
X162403333Y-66026247D01*
X162403333Y-66026247D02*
X162355714Y-66216723D01*
X162355714Y-66216723D02*
X162308095Y-66311961D01*
X162308095Y-66311961D02*
X162212857Y-66407200D01*
X162212857Y-66407200D02*
X162070000Y-66454819D01*
X162070000Y-66454819D02*
X161831905Y-66454819D01*
X163260476Y-65454819D02*
X163070000Y-65454819D01*
X163070000Y-65454819D02*
X162974762Y-65502438D01*
X162974762Y-65502438D02*
X162927143Y-65550057D01*
X162927143Y-65550057D02*
X162831905Y-65692914D01*
X162831905Y-65692914D02*
X162784286Y-65883390D01*
X162784286Y-65883390D02*
X162784286Y-66264342D01*
X162784286Y-66264342D02*
X162831905Y-66359580D01*
X162831905Y-66359580D02*
X162879524Y-66407200D01*
X162879524Y-66407200D02*
X162974762Y-66454819D01*
X162974762Y-66454819D02*
X163165238Y-66454819D01*
X163165238Y-66454819D02*
X163260476Y-66407200D01*
X163260476Y-66407200D02*
X163308095Y-66359580D01*
X163308095Y-66359580D02*
X163355714Y-66264342D01*
X163355714Y-66264342D02*
X163355714Y-66026247D01*
X163355714Y-66026247D02*
X163308095Y-65931009D01*
X163308095Y-65931009D02*
X163260476Y-65883390D01*
X163260476Y-65883390D02*
X163165238Y-65835771D01*
X163165238Y-65835771D02*
X162974762Y-65835771D01*
X162974762Y-65835771D02*
X162879524Y-65883390D01*
X162879524Y-65883390D02*
X162831905Y-65931009D01*
X162831905Y-65931009D02*
X162784286Y-66026247D01*
X129320714Y-90454819D02*
X129320714Y-89454819D01*
X129320714Y-89454819D02*
X129558809Y-89454819D01*
X129558809Y-89454819D02*
X129701666Y-89502438D01*
X129701666Y-89502438D02*
X129796904Y-89597676D01*
X129796904Y-89597676D02*
X129844523Y-89692914D01*
X129844523Y-89692914D02*
X129892142Y-89883390D01*
X129892142Y-89883390D02*
X129892142Y-90026247D01*
X129892142Y-90026247D02*
X129844523Y-90216723D01*
X129844523Y-90216723D02*
X129796904Y-90311961D01*
X129796904Y-90311961D02*
X129701666Y-90407200D01*
X129701666Y-90407200D02*
X129558809Y-90454819D01*
X129558809Y-90454819D02*
X129320714Y-90454819D01*
X130844523Y-90454819D02*
X130273095Y-90454819D01*
X130558809Y-90454819D02*
X130558809Y-89454819D01*
X130558809Y-89454819D02*
X130463571Y-89597676D01*
X130463571Y-89597676D02*
X130368333Y-89692914D01*
X130368333Y-89692914D02*
X130273095Y-89740533D01*
X131225476Y-89550057D02*
X131273095Y-89502438D01*
X131273095Y-89502438D02*
X131368333Y-89454819D01*
X131368333Y-89454819D02*
X131606428Y-89454819D01*
X131606428Y-89454819D02*
X131701666Y-89502438D01*
X131701666Y-89502438D02*
X131749285Y-89550057D01*
X131749285Y-89550057D02*
X131796904Y-89645295D01*
X131796904Y-89645295D02*
X131796904Y-89740533D01*
X131796904Y-89740533D02*
X131749285Y-89883390D01*
X131749285Y-89883390D02*
X131177857Y-90454819D01*
X131177857Y-90454819D02*
X131796904Y-90454819D01*
X162031905Y-54454819D02*
X162031905Y-53454819D01*
X162031905Y-53454819D02*
X162270000Y-53454819D01*
X162270000Y-53454819D02*
X162412857Y-53502438D01*
X162412857Y-53502438D02*
X162508095Y-53597676D01*
X162508095Y-53597676D02*
X162555714Y-53692914D01*
X162555714Y-53692914D02*
X162603333Y-53883390D01*
X162603333Y-53883390D02*
X162603333Y-54026247D01*
X162603333Y-54026247D02*
X162555714Y-54216723D01*
X162555714Y-54216723D02*
X162508095Y-54311961D01*
X162508095Y-54311961D02*
X162412857Y-54407200D01*
X162412857Y-54407200D02*
X162270000Y-54454819D01*
X162270000Y-54454819D02*
X162031905Y-54454819D01*
X163174762Y-53883390D02*
X163079524Y-53835771D01*
X163079524Y-53835771D02*
X163031905Y-53788152D01*
X163031905Y-53788152D02*
X162984286Y-53692914D01*
X162984286Y-53692914D02*
X162984286Y-53645295D01*
X162984286Y-53645295D02*
X163031905Y-53550057D01*
X163031905Y-53550057D02*
X163079524Y-53502438D01*
X163079524Y-53502438D02*
X163174762Y-53454819D01*
X163174762Y-53454819D02*
X163365238Y-53454819D01*
X163365238Y-53454819D02*
X163460476Y-53502438D01*
X163460476Y-53502438D02*
X163508095Y-53550057D01*
X163508095Y-53550057D02*
X163555714Y-53645295D01*
X163555714Y-53645295D02*
X163555714Y-53692914D01*
X163555714Y-53692914D02*
X163508095Y-53788152D01*
X163508095Y-53788152D02*
X163460476Y-53835771D01*
X163460476Y-53835771D02*
X163365238Y-53883390D01*
X163365238Y-53883390D02*
X163174762Y-53883390D01*
X163174762Y-53883390D02*
X163079524Y-53931009D01*
X163079524Y-53931009D02*
X163031905Y-53978628D01*
X163031905Y-53978628D02*
X162984286Y-54073866D01*
X162984286Y-54073866D02*
X162984286Y-54264342D01*
X162984286Y-54264342D02*
X163031905Y-54359580D01*
X163031905Y-54359580D02*
X163079524Y-54407200D01*
X163079524Y-54407200D02*
X163174762Y-54454819D01*
X163174762Y-54454819D02*
X163365238Y-54454819D01*
X163365238Y-54454819D02*
X163460476Y-54407200D01*
X163460476Y-54407200D02*
X163508095Y-54359580D01*
X163508095Y-54359580D02*
X163555714Y-54264342D01*
X163555714Y-54264342D02*
X163555714Y-54073866D01*
X163555714Y-54073866D02*
X163508095Y-53978628D01*
X163508095Y-53978628D02*
X163460476Y-53931009D01*
X163460476Y-53931009D02*
X163365238Y-53883390D01*
X162031905Y-90454819D02*
X162031905Y-89454819D01*
X162031905Y-89454819D02*
X162270000Y-89454819D01*
X162270000Y-89454819D02*
X162412857Y-89502438D01*
X162412857Y-89502438D02*
X162508095Y-89597676D01*
X162508095Y-89597676D02*
X162555714Y-89692914D01*
X162555714Y-89692914D02*
X162603333Y-89883390D01*
X162603333Y-89883390D02*
X162603333Y-90026247D01*
X162603333Y-90026247D02*
X162555714Y-90216723D01*
X162555714Y-90216723D02*
X162508095Y-90311961D01*
X162508095Y-90311961D02*
X162412857Y-90407200D01*
X162412857Y-90407200D02*
X162270000Y-90454819D01*
X162270000Y-90454819D02*
X162031905Y-90454819D01*
X162984286Y-89550057D02*
X163031905Y-89502438D01*
X163031905Y-89502438D02*
X163127143Y-89454819D01*
X163127143Y-89454819D02*
X163365238Y-89454819D01*
X163365238Y-89454819D02*
X163460476Y-89502438D01*
X163460476Y-89502438D02*
X163508095Y-89550057D01*
X163508095Y-89550057D02*
X163555714Y-89645295D01*
X163555714Y-89645295D02*
X163555714Y-89740533D01*
X163555714Y-89740533D02*
X163508095Y-89883390D01*
X163508095Y-89883390D02*
X162936667Y-90454819D01*
X162936667Y-90454819D02*
X163555714Y-90454819D01*
X129320714Y-66454819D02*
X129320714Y-65454819D01*
X129320714Y-65454819D02*
X129558809Y-65454819D01*
X129558809Y-65454819D02*
X129701666Y-65502438D01*
X129701666Y-65502438D02*
X129796904Y-65597676D01*
X129796904Y-65597676D02*
X129844523Y-65692914D01*
X129844523Y-65692914D02*
X129892142Y-65883390D01*
X129892142Y-65883390D02*
X129892142Y-66026247D01*
X129892142Y-66026247D02*
X129844523Y-66216723D01*
X129844523Y-66216723D02*
X129796904Y-66311961D01*
X129796904Y-66311961D02*
X129701666Y-66407200D01*
X129701666Y-66407200D02*
X129558809Y-66454819D01*
X129558809Y-66454819D02*
X129320714Y-66454819D01*
X130844523Y-66454819D02*
X130273095Y-66454819D01*
X130558809Y-66454819D02*
X130558809Y-65454819D01*
X130558809Y-65454819D02*
X130463571Y-65597676D01*
X130463571Y-65597676D02*
X130368333Y-65692914D01*
X130368333Y-65692914D02*
X130273095Y-65740533D01*
X131701666Y-65454819D02*
X131511190Y-65454819D01*
X131511190Y-65454819D02*
X131415952Y-65502438D01*
X131415952Y-65502438D02*
X131368333Y-65550057D01*
X131368333Y-65550057D02*
X131273095Y-65692914D01*
X131273095Y-65692914D02*
X131225476Y-65883390D01*
X131225476Y-65883390D02*
X131225476Y-66264342D01*
X131225476Y-66264342D02*
X131273095Y-66359580D01*
X131273095Y-66359580D02*
X131320714Y-66407200D01*
X131320714Y-66407200D02*
X131415952Y-66454819D01*
X131415952Y-66454819D02*
X131606428Y-66454819D01*
X131606428Y-66454819D02*
X131701666Y-66407200D01*
X131701666Y-66407200D02*
X131749285Y-66359580D01*
X131749285Y-66359580D02*
X131796904Y-66264342D01*
X131796904Y-66264342D02*
X131796904Y-66026247D01*
X131796904Y-66026247D02*
X131749285Y-65931009D01*
X131749285Y-65931009D02*
X131701666Y-65883390D01*
X131701666Y-65883390D02*
X131606428Y-65835771D01*
X131606428Y-65835771D02*
X131415952Y-65835771D01*
X131415952Y-65835771D02*
X131320714Y-65883390D01*
X131320714Y-65883390D02*
X131273095Y-65931009D01*
X131273095Y-65931009D02*
X131225476Y-66026247D01*
D14*
X153700000Y-133250000D02*
X153700000Y-134750000D01*
X154950000Y-137250000D02*
X159450000Y-137250000D01*
X159450000Y-130750000D02*
X154950000Y-130750000D01*
X160700000Y-134750000D02*
X160700000Y-133250000D01*
X160330000Y-43236000D02*
X160330000Y-43080000D01*
X160330000Y-40920000D02*
X160330000Y-40764000D01*
X160330000Y-43235516D02*
G75*
G02*
X157097665Y-43078608I-1560000J1235516D01*
G01*
X159810961Y-43080000D02*
G75*
G02*
X157728870Y-43079837I-1040961J1080000D01*
G01*
X157728870Y-40920163D02*
G75*
G02*
X159810961Y-40920000I1041130J-1079837D01*
G01*
X157097665Y-40921392D02*
G75*
G02*
X160330000Y-40764484I1672335J-1078608D01*
G01*
D13*
X132700000Y-131000000D02*
X132700000Y-137500000D01*
X132700000Y-131000000D02*
X133200000Y-130500000D01*
X132700000Y-137500000D02*
X139700000Y-137500000D01*
X135200000Y-133000000D02*
X135200000Y-135000000D01*
X135200000Y-135000000D02*
X137200000Y-135000000D01*
X137200000Y-133000000D02*
X135200000Y-133000000D01*
X137200000Y-135000000D02*
X137200000Y-133000000D01*
X139700000Y-130500000D02*
X133200000Y-130500000D01*
X139700000Y-137500000D02*
X139700000Y-130500000D01*
D14*
X160330000Y-49236000D02*
X160330000Y-49080000D01*
X160330000Y-46920000D02*
X160330000Y-46764000D01*
X160330000Y-49235516D02*
G75*
G02*
X157097665Y-49078608I-1560000J1235516D01*
G01*
X159810961Y-49080000D02*
G75*
G02*
X157728870Y-49079837I-1040961J1080000D01*
G01*
X157728870Y-46920163D02*
G75*
G02*
X159810961Y-46920000I1041130J-1079837D01*
G01*
X157097665Y-46921392D02*
G75*
G02*
X160330000Y-46764484I1672335J-1078608D01*
G01*
X132700000Y-116750000D02*
X132700000Y-118250000D01*
X133950000Y-120750000D02*
X138450000Y-120750000D01*
X138450000Y-114250000D02*
X133950000Y-114250000D01*
X139700000Y-118250000D02*
X139700000Y-116750000D01*
X133170000Y-43080000D02*
X133170000Y-43236000D01*
X133170000Y-40764000D02*
X133170000Y-40920000D01*
X136402335Y-43078608D02*
G75*
G02*
X133170000Y-43235516I-1672335J1078608D01*
G01*
X135771130Y-43079837D02*
G75*
G02*
X133689039Y-43080000I-1041130J1079837D01*
G01*
X133689039Y-40920000D02*
G75*
G02*
X135771130Y-40920163I1040961J-1080000D01*
G01*
X133170000Y-40764484D02*
G75*
G02*
X136402335Y-40921392I1560000J-1235516D01*
G01*
X153700000Y-116750000D02*
X153700000Y-118250000D01*
X154950000Y-120750000D02*
X159450000Y-120750000D01*
X159450000Y-114250000D02*
X154950000Y-114250000D01*
X160700000Y-118250000D02*
X160700000Y-116750000D01*
X133170000Y-49080000D02*
X133170000Y-49236000D01*
X133170000Y-46764000D02*
X133170000Y-46920000D01*
X136402335Y-49078608D02*
G75*
G02*
X133170000Y-49235516I-1672335J1078608D01*
G01*
X135771130Y-49079837D02*
G75*
G02*
X133689039Y-49080000I-1041130J1079837D01*
G01*
X133689039Y-46920000D02*
G75*
G02*
X135771130Y-46920163I1040961J-1080000D01*
G01*
X133170000Y-46764484D02*
G75*
G02*
X136402335Y-46921392I1560000J-1235516D01*
G01*
X133170000Y-97080000D02*
X133170000Y-97236000D01*
X133170000Y-94764000D02*
X133170000Y-94920000D01*
X136402335Y-97078608D02*
G75*
G02*
X133170000Y-97235516I-1672335J1078608D01*
G01*
X135771130Y-97079837D02*
G75*
G02*
X133689039Y-97080000I-1041130J1079837D01*
G01*
X133689039Y-94920000D02*
G75*
G02*
X135771130Y-94920163I1040961J-1080000D01*
G01*
X133170000Y-94764484D02*
G75*
G02*
X136402335Y-94921392I1560000J-1235516D01*
G01*
X133170000Y-73080000D02*
X133170000Y-73236000D01*
X133170000Y-70764000D02*
X133170000Y-70920000D01*
X136402335Y-73078608D02*
G75*
G02*
X133170000Y-73235516I-1672335J1078608D01*
G01*
X135771130Y-73079837D02*
G75*
G02*
X133689039Y-73080000I-1041130J1079837D01*
G01*
X133689039Y-70920000D02*
G75*
G02*
X135771130Y-70920163I1040961J-1080000D01*
G01*
X133170000Y-70764484D02*
G75*
G02*
X136402335Y-70921392I1560000J-1235516D01*
G01*
X133170000Y-61080000D02*
X133170000Y-61236000D01*
X133170000Y-58764000D02*
X133170000Y-58920000D01*
X136402335Y-61078608D02*
G75*
G02*
X133170000Y-61235516I-1672335J1078608D01*
G01*
X135771130Y-61079837D02*
G75*
G02*
X133689039Y-61080000I-1041130J1079837D01*
G01*
X133689039Y-58920000D02*
G75*
G02*
X135771130Y-58920163I1040961J-1080000D01*
G01*
X133170000Y-58764484D02*
G75*
G02*
X136402335Y-58921392I1560000J-1235516D01*
G01*
X160330000Y-79236000D02*
X160330000Y-79080000D01*
X160330000Y-76920000D02*
X160330000Y-76764000D01*
X160330000Y-79235516D02*
G75*
G02*
X157097665Y-79078608I-1560000J1235516D01*
G01*
X159810961Y-79080000D02*
G75*
G02*
X157728870Y-79079837I-1040961J1080000D01*
G01*
X157728870Y-76920163D02*
G75*
G02*
X159810961Y-76920000I1041130J-1079837D01*
G01*
X157097665Y-76921392D02*
G75*
G02*
X160330000Y-76764484I1672335J-1078608D01*
G01*
X133170000Y-85080000D02*
X133170000Y-85236000D01*
X133170000Y-82764000D02*
X133170000Y-82920000D01*
X136402335Y-85078608D02*
G75*
G02*
X133170000Y-85235516I-1672335J1078608D01*
G01*
X135771130Y-85079837D02*
G75*
G02*
X133689039Y-85080000I-1041130J1079837D01*
G01*
X133689039Y-82920000D02*
G75*
G02*
X135771130Y-82920163I1040961J-1080000D01*
G01*
X133170000Y-82764484D02*
G75*
G02*
X136402335Y-82921392I1560000J-1235516D01*
G01*
X160330000Y-85236000D02*
X160330000Y-85080000D01*
X160330000Y-82920000D02*
X160330000Y-82764000D01*
X160330000Y-85235516D02*
G75*
G02*
X157097665Y-85078608I-1560000J1235516D01*
G01*
X159810961Y-85080000D02*
G75*
G02*
X157728870Y-85079837I-1040961J1080000D01*
G01*
X157728870Y-82920163D02*
G75*
G02*
X159810961Y-82920000I1041130J-1079837D01*
G01*
X157097665Y-82921392D02*
G75*
G02*
X160330000Y-82764484I1672335J-1078608D01*
G01*
X133170000Y-55080000D02*
X133170000Y-55236000D01*
X133170000Y-52764000D02*
X133170000Y-52920000D01*
X136402335Y-55078608D02*
G75*
G02*
X133170000Y-55235516I-1672335J1078608D01*
G01*
X135771130Y-55079837D02*
G75*
G02*
X133689039Y-55080000I-1041130J1079837D01*
G01*
X133689039Y-52920000D02*
G75*
G02*
X135771130Y-52920163I1040961J-1080000D01*
G01*
X133170000Y-52764484D02*
G75*
G02*
X136402335Y-52921392I1560000J-1235516D01*
G01*
X160330000Y-73236000D02*
X160330000Y-73080000D01*
X160330000Y-70920000D02*
X160330000Y-70764000D01*
X160330000Y-73235516D02*
G75*
G02*
X157097665Y-73078608I-1560000J1235516D01*
G01*
X159810961Y-73080000D02*
G75*
G02*
X157728870Y-73079837I-1040961J1080000D01*
G01*
X157728870Y-70920163D02*
G75*
G02*
X159810961Y-70920000I1041130J-1079837D01*
G01*
X157097665Y-70921392D02*
G75*
G02*
X160330000Y-70764484I1672335J-1078608D01*
G01*
X160330000Y-97236000D02*
X160330000Y-97080000D01*
X160330000Y-94920000D02*
X160330000Y-94764000D01*
X160330000Y-97235516D02*
G75*
G02*
X157097665Y-97078608I-1560000J1235516D01*
G01*
X159810961Y-97080000D02*
G75*
G02*
X157728870Y-97079837I-1040961J1080000D01*
G01*
X157728870Y-94920163D02*
G75*
G02*
X159810961Y-94920000I1041130J-1079837D01*
G01*
X157097665Y-94921392D02*
G75*
G02*
X160330000Y-94764484I1672335J-1078608D01*
G01*
X160330000Y-61236000D02*
X160330000Y-61080000D01*
X160330000Y-58920000D02*
X160330000Y-58764000D01*
X160330000Y-61235516D02*
G75*
G02*
X157097665Y-61078608I-1560000J1235516D01*
G01*
X159810961Y-61080000D02*
G75*
G02*
X157728870Y-61079837I-1040961J1080000D01*
G01*
X157728870Y-58920163D02*
G75*
G02*
X159810961Y-58920000I1041130J-1079837D01*
G01*
X157097665Y-58921392D02*
G75*
G02*
X160330000Y-58764484I1672335J-1078608D01*
G01*
X133170000Y-79080000D02*
X133170000Y-79236000D01*
X133170000Y-76764000D02*
X133170000Y-76920000D01*
X136402335Y-79078608D02*
G75*
G02*
X133170000Y-79235516I-1672335J1078608D01*
G01*
X135771130Y-79079837D02*
G75*
G02*
X133689039Y-79080000I-1041130J1079837D01*
G01*
X133689039Y-76920000D02*
G75*
G02*
X135771130Y-76920163I1040961J-1080000D01*
G01*
X133170000Y-76764484D02*
G75*
G02*
X136402335Y-76921392I1560000J-1235516D01*
G01*
X160330000Y-67236000D02*
X160330000Y-67080000D01*
X160330000Y-64920000D02*
X160330000Y-64764000D01*
X160330000Y-67235516D02*
G75*
G02*
X157097665Y-67078608I-1560000J1235516D01*
G01*
X159810961Y-67080000D02*
G75*
G02*
X157728870Y-67079837I-1040961J1080000D01*
G01*
X157728870Y-64920163D02*
G75*
G02*
X159810961Y-64920000I1041130J-1079837D01*
G01*
X157097665Y-64921392D02*
G75*
G02*
X160330000Y-64764484I1672335J-1078608D01*
G01*
X133170000Y-91080000D02*
X133170000Y-91236000D01*
X133170000Y-88764000D02*
X133170000Y-88920000D01*
X136402335Y-91078608D02*
G75*
G02*
X133170000Y-91235516I-1672335J1078608D01*
G01*
X135771130Y-91079837D02*
G75*
G02*
X133689039Y-91080000I-1041130J1079837D01*
G01*
X133689039Y-88920000D02*
G75*
G02*
X135771130Y-88920163I1040961J-1080000D01*
G01*
X133170000Y-88764484D02*
G75*
G02*
X136402335Y-88921392I1560000J-1235516D01*
G01*
X160330000Y-55236000D02*
X160330000Y-55080000D01*
X160330000Y-52920000D02*
X160330000Y-52764000D01*
X160330000Y-55235516D02*
G75*
G02*
X157097665Y-55078608I-1560000J1235516D01*
G01*
X159810961Y-55080000D02*
G75*
G02*
X157728870Y-55079837I-1040961J1080000D01*
G01*
X157728870Y-52920163D02*
G75*
G02*
X159810961Y-52920000I1041130J-1079837D01*
G01*
X157097665Y-52921392D02*
G75*
G02*
X160330000Y-52764484I1672335J-1078608D01*
G01*
X160330000Y-91236000D02*
X160330000Y-91080000D01*
X160330000Y-88920000D02*
X160330000Y-88764000D01*
X160330000Y-91235516D02*
G75*
G02*
X157097665Y-91078608I-1560000J1235516D01*
G01*
X159810961Y-91080000D02*
G75*
G02*
X157728870Y-91079837I-1040961J1080000D01*
G01*
X157728870Y-88920163D02*
G75*
G02*
X159810961Y-88920000I1041130J-1079837D01*
G01*
X157097665Y-88921392D02*
G75*
G02*
X160330000Y-88764484I1672335J-1078608D01*
G01*
X133170000Y-67080000D02*
X133170000Y-67236000D01*
X133170000Y-64764000D02*
X133170000Y-64920000D01*
X136402335Y-67078608D02*
G75*
G02*
X133170000Y-67235516I-1672335J1078608D01*
G01*
X135771130Y-67079837D02*
G75*
G02*
X133689039Y-67080000I-1041130J1079837D01*
G01*
X133689039Y-64920000D02*
G75*
G02*
X135771130Y-64920163I1040961J-1080000D01*
G01*
X133170000Y-64764484D02*
G75*
G02*
X136402335Y-64921392I1560000J-1235516D01*
G01*
%LPC*%
D15*
X133725000Y-126000000D02*
G75*
G02*
X130675000Y-126000000I-1525000J0D01*
G01*
X130675000Y-126000000D02*
G75*
G02*
X133725000Y-126000000I1525000J0D01*
G01*
X162725000Y-126000000D02*
G75*
G02*
X159675000Y-126000000I-1525000J0D01*
G01*
X159675000Y-126000000D02*
G75*
G02*
X162725000Y-126000000I1525000J0D01*
G01*
X162725000Y-34500000D02*
G75*
G02*
X159675000Y-34500000I-1525000J0D01*
G01*
X159675000Y-34500000D02*
G75*
G02*
X162725000Y-34500000I1525000J0D01*
G01*
X133725000Y-34500000D02*
G75*
G02*
X130675000Y-34500000I-1525000J0D01*
G01*
X130675000Y-34500000D02*
G75*
G02*
X133725000Y-34500000I1525000J0D01*
G01*
D16*
X153950000Y-131750000D03*
X160450000Y-131750000D03*
X153950000Y-136250000D03*
X160450000Y-136250000D03*
D17*
X160040000Y-42000000D03*
D18*
X157500000Y-42000000D03*
D19*
X134200000Y-131500000D03*
D20*
X136200000Y-131500000D03*
X138200000Y-131500000D03*
X134200000Y-136500000D03*
X136200000Y-136500000D03*
X138200000Y-136500000D03*
D17*
X160040000Y-48000000D03*
D18*
X157500000Y-48000000D03*
D16*
X132950000Y-115250000D03*
X139450000Y-115250000D03*
X132950000Y-119750000D03*
X139450000Y-119750000D03*
D17*
X133460000Y-42000000D03*
D18*
X136000000Y-42000000D03*
D16*
X153950000Y-115250000D03*
X160450000Y-115250000D03*
X153950000Y-119750000D03*
X160450000Y-119750000D03*
D17*
X133460000Y-48000000D03*
D18*
X136000000Y-48000000D03*
D19*
X150202500Y-102292500D03*
D21*
X150202500Y-104832500D03*
X150202500Y-107372500D03*
X150202500Y-109912500D03*
X142582500Y-109912500D03*
X142582500Y-107372500D03*
X142582500Y-104832500D03*
X142582500Y-102292500D03*
D20*
X161642500Y-101012500D03*
D21*
X161642500Y-108632500D03*
D22*
X138960000Y-102260000D03*
D23*
X138960000Y-104800000D03*
X138960000Y-107340000D03*
D22*
X143862500Y-121332500D03*
D23*
X143862500Y-118792500D03*
X143862500Y-116252500D03*
D24*
X143515000Y-87965000D03*
D25*
X143515000Y-85425000D03*
X143515000Y-82885000D03*
X143515000Y-80345000D03*
X143515000Y-77805000D03*
X143515000Y-75265000D03*
X143515000Y-72725000D03*
X143515000Y-70185000D03*
X151135000Y-70185000D03*
X151135000Y-72725000D03*
X151135000Y-75265000D03*
X151135000Y-77805000D03*
X151135000Y-80345000D03*
X151135000Y-82885000D03*
X151135000Y-85425000D03*
X151135000Y-87965000D03*
D20*
X154410000Y-95200000D03*
D21*
X146790000Y-95200000D03*
D20*
X144537500Y-98790000D03*
X149537500Y-98790000D03*
X149895000Y-128317500D03*
D21*
X142275000Y-128317500D03*
D22*
X155927500Y-100695000D03*
D23*
X155927500Y-103235000D03*
X155927500Y-105775000D03*
D20*
X149577500Y-121610000D03*
X149577500Y-116610000D03*
D22*
X142840000Y-96140000D03*
D23*
X142840000Y-93600000D03*
X142840000Y-91060000D03*
D21*
X145415000Y-35242500D03*
D20*
X137795000Y-35242500D03*
X142910000Y-113395000D03*
D21*
X150530000Y-113395000D03*
D26*
X147700000Y-134000000D03*
D27*
X144200000Y-134000000D03*
D20*
X149895000Y-124825000D03*
D21*
X142275000Y-124825000D03*
D20*
X139200000Y-90790000D03*
D21*
X139200000Y-98410000D03*
D20*
X131600000Y-101190000D03*
D21*
X131600000Y-108810000D03*
D20*
X134600000Y-101190000D03*
D21*
X134600000Y-108810000D03*
X148590000Y-35242500D03*
D20*
X156210000Y-35242500D03*
X140220000Y-111800000D03*
D21*
X132600000Y-111800000D03*
D20*
X158150000Y-109267500D03*
X153150000Y-109267500D03*
X146790000Y-91800000D03*
D21*
X154410000Y-91800000D03*
D17*
X133460000Y-96000000D03*
D18*
X136000000Y-96000000D03*
D17*
X133460000Y-72000000D03*
D18*
X136000000Y-72000000D03*
D24*
X143192500Y-57150000D03*
D25*
X143192500Y-54610000D03*
X143192500Y-52070000D03*
X143192500Y-49530000D03*
X143192500Y-46990000D03*
X143192500Y-44450000D03*
X143192500Y-41910000D03*
X143192500Y-39370000D03*
X150812500Y-39370000D03*
X150812500Y-41910000D03*
X150812500Y-44450000D03*
X150812500Y-46990000D03*
X150812500Y-49530000D03*
X150812500Y-52070000D03*
X150812500Y-54610000D03*
X150812500Y-57150000D03*
D19*
X150847500Y-63865000D03*
D21*
X143227500Y-63865000D03*
D19*
X150847500Y-66405000D03*
D21*
X143227500Y-66405000D03*
D17*
X133460000Y-60000000D03*
D18*
X136000000Y-60000000D03*
D17*
X160040000Y-78000000D03*
D18*
X157500000Y-78000000D03*
D17*
X133460000Y-84000000D03*
D18*
X136000000Y-84000000D03*
D17*
X160040000Y-84000000D03*
D18*
X157500000Y-84000000D03*
D17*
X133460000Y-54000000D03*
D18*
X136000000Y-54000000D03*
D17*
X160040000Y-72000000D03*
D18*
X157500000Y-72000000D03*
D17*
X160040000Y-96000000D03*
D18*
X157500000Y-96000000D03*
D17*
X160040000Y-60000000D03*
D18*
X157500000Y-60000000D03*
D20*
X150847500Y-60690000D03*
D21*
X143227500Y-60690000D03*
D17*
X133460000Y-78000000D03*
D18*
X136000000Y-78000000D03*
D17*
X160040000Y-66000000D03*
D18*
X157500000Y-66000000D03*
D17*
X133460000Y-90000000D03*
D18*
X136000000Y-90000000D03*
D17*
X160040000Y-54000000D03*
D18*
X157500000Y-54000000D03*
D17*
X160040000Y-90000000D03*
D18*
X157500000Y-90000000D03*
D17*
X133460000Y-66000000D03*
D18*
X136000000Y-66000000D03*
%LPD*%
M02*
