%TF.GenerationSoftware,KiCad,Pcbnew,9.0.1*%
%TF.CreationDate,2025-06-05T21:35:17+02:00*%
%TF.ProjectId,storm_distance_meter,73746f72-6d5f-4646-9973-74616e63655f,1*%
%TF.SameCoordinates,Original*%
%TF.FileFunction,Drillmap*%
%TF.FilePolarity,Positive*%
%FSLAX45Y45*%
G04 Gerber Fmt 4.5, Leading zero omitted, Abs format (unit mm)*
G04 Created by KiCad (PCBNEW 9.0.1) date 2025-06-05 21:35:17*
%MOMM*%
%LPD*%
G01*
G04 APERTURE LIST*
%ADD10C,0.050000*%
%ADD11C,0.200000*%
G04 APERTURE END LIST*
D10*
X16470000Y-3100000D02*
X12870000Y-3100000D01*
X15000000Y-13950000D02*
X15000000Y-14100000D01*
X14200000Y-14100000D02*
X14200000Y-13950000D01*
X12870000Y-14100000D02*
X14200000Y-14100000D01*
X14200000Y-13950000D02*
X15000000Y-13950000D01*
X15000000Y-14100000D02*
X16470000Y-14100000D01*
X16470000Y-14100000D02*
X16470000Y-3100000D01*
X12870000Y-3100000D02*
X12870000Y-14100000D01*
D11*
X13128277Y-14413984D02*
X13128277Y-14213984D01*
X13128277Y-14213984D02*
X13175896Y-14213984D01*
X13175896Y-14213984D02*
X13204467Y-14223508D01*
X13204467Y-14223508D02*
X13223515Y-14242555D01*
X13223515Y-14242555D02*
X13233039Y-14261603D01*
X13233039Y-14261603D02*
X13242562Y-14299698D01*
X13242562Y-14299698D02*
X13242562Y-14328269D01*
X13242562Y-14328269D02*
X13233039Y-14366365D01*
X13233039Y-14366365D02*
X13223515Y-14385412D01*
X13223515Y-14385412D02*
X13204467Y-14404460D01*
X13204467Y-14404460D02*
X13175896Y-14413984D01*
X13175896Y-14413984D02*
X13128277Y-14413984D01*
X13328277Y-14413984D02*
X13328277Y-14280650D01*
X13328277Y-14318746D02*
X13337801Y-14299698D01*
X13337801Y-14299698D02*
X13347324Y-14290174D01*
X13347324Y-14290174D02*
X13366372Y-14280650D01*
X13366372Y-14280650D02*
X13385420Y-14280650D01*
X13452086Y-14413984D02*
X13452086Y-14280650D01*
X13452086Y-14213984D02*
X13442562Y-14223508D01*
X13442562Y-14223508D02*
X13452086Y-14233031D01*
X13452086Y-14233031D02*
X13461610Y-14223508D01*
X13461610Y-14223508D02*
X13452086Y-14213984D01*
X13452086Y-14213984D02*
X13452086Y-14233031D01*
X13575896Y-14413984D02*
X13556848Y-14404460D01*
X13556848Y-14404460D02*
X13547324Y-14385412D01*
X13547324Y-14385412D02*
X13547324Y-14213984D01*
X13680658Y-14413984D02*
X13661610Y-14404460D01*
X13661610Y-14404460D02*
X13652086Y-14385412D01*
X13652086Y-14385412D02*
X13652086Y-14213984D01*
X13909229Y-14413984D02*
X13909229Y-14213984D01*
X13909229Y-14213984D02*
X13975896Y-14356841D01*
X13975896Y-14356841D02*
X14042562Y-14213984D01*
X14042562Y-14213984D02*
X14042562Y-14413984D01*
X14223515Y-14413984D02*
X14223515Y-14309222D01*
X14223515Y-14309222D02*
X14213991Y-14290174D01*
X14213991Y-14290174D02*
X14194943Y-14280650D01*
X14194943Y-14280650D02*
X14156848Y-14280650D01*
X14156848Y-14280650D02*
X14137801Y-14290174D01*
X14223515Y-14404460D02*
X14204467Y-14413984D01*
X14204467Y-14413984D02*
X14156848Y-14413984D01*
X14156848Y-14413984D02*
X14137801Y-14404460D01*
X14137801Y-14404460D02*
X14128277Y-14385412D01*
X14128277Y-14385412D02*
X14128277Y-14366365D01*
X14128277Y-14366365D02*
X14137801Y-14347317D01*
X14137801Y-14347317D02*
X14156848Y-14337793D01*
X14156848Y-14337793D02*
X14204467Y-14337793D01*
X14204467Y-14337793D02*
X14223515Y-14328269D01*
X14318753Y-14280650D02*
X14318753Y-14480650D01*
X14318753Y-14290174D02*
X14337801Y-14280650D01*
X14337801Y-14280650D02*
X14375896Y-14280650D01*
X14375896Y-14280650D02*
X14394943Y-14290174D01*
X14394943Y-14290174D02*
X14404467Y-14299698D01*
X14404467Y-14299698D02*
X14413991Y-14318746D01*
X14413991Y-14318746D02*
X14413991Y-14375888D01*
X14413991Y-14375888D02*
X14404467Y-14394936D01*
X14404467Y-14394936D02*
X14394943Y-14404460D01*
X14394943Y-14404460D02*
X14375896Y-14413984D01*
X14375896Y-14413984D02*
X14337801Y-14413984D01*
X14337801Y-14413984D02*
X14318753Y-14404460D01*
X14499705Y-14394936D02*
X14509229Y-14404460D01*
X14509229Y-14404460D02*
X14499705Y-14413984D01*
X14499705Y-14413984D02*
X14490182Y-14404460D01*
X14490182Y-14404460D02*
X14499705Y-14394936D01*
X14499705Y-14394936D02*
X14499705Y-14413984D01*
X14499705Y-14290174D02*
X14509229Y-14299698D01*
X14509229Y-14299698D02*
X14499705Y-14309222D01*
X14499705Y-14309222D02*
X14490182Y-14299698D01*
X14490182Y-14299698D02*
X14499705Y-14290174D01*
X14499705Y-14290174D02*
X14499705Y-14309222D01*
M02*
